<?xml version="1.0" encoding="UTF-8" standalone="no"?>
<svg
   width="520.10962"
   height="520.06006"
   viewBox="0 0 520.10964 520.06006"
   version="1.1"
   id="svg6"
   sodipodi:docname="camping_green.svg"
   inkscape:version="1.4.2 (ebf0e940, 2025-05-08)"
   xmlns:inkscape="http://www.inkscape.org/namespaces/inkscape"
   xmlns:sodipodi="http://sodipodi.sourceforge.net/DTD/sodipodi-0.dtd"
   xmlns="http://www.w3.org/2000/svg"
   xmlns:svg="http://www.w3.org/2000/svg">
  <defs
     id="defs6" />
  <sodipodi:namedview
     id="namedview6"
     pagecolor="#ffffff"
     bordercolor="#000000"
     borderopacity="0.25"
     inkscape:showpageshadow="2"
     inkscape:pageopacity="0.0"
     inkscape:pagecheckerboard="0"
     inkscape:deskcolor="#d1d1d1"
     inkscape:zoom="1.3126328"
     inkscape:cx="255.9741"
     inkscape:cy="290.25635"
     inkscape:window-width="1680"
     inkscape:window-height="997"
     inkscape:window-x="0"
     inkscape:window-y="25"
     inkscape:window-maximized="0"
     inkscape:current-layer="svg6" />
  <path
     d="m 250.15019,413.98329 c 0,-1 -1.1,-2.8 -2.6,-4 -2.6,-2 -3.4,-2 -69.5,-2 -78,0 -70.9,1.1 -70.9,-11.6 0,-12.9 -17.199999,-11.5 138.6,-11.5 127.2,0 134.5,0.1 135.2,1.8 1,2.3 1,17.2 0,19.5 -0.6,1.6 -4.2,1.7 -53.8,1.7 h -53 l -2.5,2.5 c -1.4,1.4 -2.5,3.2 -2.5,4 0,1.3 -1.6,1.5 -9.5,1.5 -8.7,0 -9.5,-0.1 -9.5,-1.9 m -114.2,-49.9 c 91.7,-159.1 108.7,-188 109.7,-186.9 1.2,1.3 110.4,190.5 110.4,191.3 0,0.2 -5.3,0.4 -11.8,0.4 h -12 l -32.6,-56.7 a 1409,1409 0 0 0 -34.7,-58.5 8,8 0 0 0 -8.8,-0.8 c -1,0.6 -16.8,26.9 -35,58.5 l -33.3,57.6 h -54.8 z m 106,-220.3 a 406,406 0 0 1 -13,-23.1 c -1,-2.7 1,-6.7 3.7,-7.7 4.6,-1.8 7,0.2 12.9,10.6 l 5.5,9.7 -2.6,4.6 c -5,8.7 -4.9,8.6 -6.5,5.9"
     style="fill:#fefefe"
     id="path1" />
  <path
     d="m 381.25019,404.68329 c 1.24199,-5.42989 1.24199,-11.07011 0,-16.5 l -1,-3.3 h 14.9 c 18.2,0 18,0 18,11.7 0,11.4 0,11.3 -18.2,11.3 h -14.6 z m -274.8,-8.8 c 0,-3 0.2,-4.2 0.5,-2.7 0.3,1.5 0.2,4 0,5.5 -0.33333,1.33333 -0.5,0.4 -0.5,-2.8 m 40,-26.7 c 7.6,-0.2 20,-0.2 27.5,0 7.5,0.2 1.4,0.3 -13.8,0.3 -15,0 -21.3,-0.1 -13.7,-0.3 m 198.5,0 c 3.74426,-1.3e-4 7.48486,-0.23392 11.2,-0.7 0,-0.7 -107.8,-187.7 -109.8,-190.5 -1.7,-2.4 -1.6,-2.6 8.7,-20.5 l 16.4,-28.6 c 8.8,-15.3 9.3,-16 13.2,-16 1.9,0 4,0.7 5,1.6 3.6,3.6 3,5 -9,26 -8.1,14.3 -11.5,21.2 -11.2,22.7 0.2,1.2 26.8,47.9 59,103.7 32.2,55.8 58.6,101.5 58.5,101.6 -13.99432,0.49872 -27.99683,0.73209 -42,0.7 m -91.8,-113.6 c 0.13333,-0.26667 0.73333,-0.86667 1.8,-1.8 1.53333,-1.26667 1.66667,-1.13333 0.4,0.4 -1.33333,1.73333 -2.06667,2.2 -2.2,1.4 m 12,-1.4 c -1.33333,-1.53333 -1.23333,-1.66667 0.3,-0.4 1.73333,1.33333 2.2,2.03333 1.4,2.1 -0.26667,-0.0667 -0.86667,-0.63333 -1.8,-1.7"
     style="fill:#cdd1d4"
     id="path2"
     sodipodi:nodetypes="cccssscccscccssccccccscccscccccccccc" />
  <path
     d="m 119.15019,499.98329 c -51.784697,-4.33269 -93.243175,-44.74318 -98.899999,-96.4 -0.6,-5.7 -1,-33.5 -1,-69.2 v -59.4 l -2.5,-2.5 c -1.4,-1.3 -3.1,-2.5 -4,-2.5 -1.1,0 -1.5,-2 -1.7,-9.7 -0.4,-9.8 -0.4,-9.8 2.1,-10 1.662679,-0.22649 3.188675,-1.04272 4.3,-2.3 1.6,-2 1.7,-6 1.7,-62.1 0,-35.9 0.5,-63.8 1.1,-69.5 5,-45.000002 37.4,-82.200002 81.299999,-93.400002 12.7,-3.3 26.8,-3.9 87.9,-4 55.4,0 56.8,0 58.7,-2 1.1,-1 2,-2.6 2,-3.5 0,-1.2 1.8,-1.5 10,-1.5 7.6,0 10,0.4 10,1.4 0,0.7 0.7,2.1 1.5,3.2 1.3,1.9 3.5,2 62.7,2.4 l 61.3,0.5 6.8,3.2 c 35.8,17 60.6,51.2 65.8,90.700002 0.7,5.5 1,54.6 0.7,152.1 l -0.3,144 -2.6,9.6 c -8.54177,34.23899 -31.83906,62.92102 -63.6,78.3 l -6.8,3.1 -133.5,0.2 c -73.4,0 -137.7,-0.3 -143,-0.7 m 126.6,-77 c 1.76086,-0.75688 3.13436,-2.20266 3.8,-4 l 1,-3 h 9.3 c 8.9,0 9.1,0 9.8,2.4 1.3,5.6 0.7,5.5 72.3,5.5 70.4,0 71.3,0 78.2,-4.9 1.7,-1.2 4.3,-4.3 5.8,-6.9 2.5,-4.3 2.7,-5.4 2.7,-15.7 0,-10.3 -0.2,-11.3 -2.7,-15.6 -3.5,-6 -7.4,-8.8 -15,-10.9 l -6,-1.6 -59.4,-102.8 -59.4,-103.2 10.1,-17.8 c 8.5,-14.7 10.2,-18.3 10.6,-23 1.50355,-14.02285 -10.39,-25.818912 -24.4,-24.200002 -8.7,1.2 -14.2,5.600002 -19.7,16.000002 -1.1,2 -2.2,3.6 -2.5,3.6 -0.3,0 -1.8,-2.2 -3.3,-5 -4.2,-7.2 -7.2,-10.5 -12.2,-12.800002 -11.04121,-5.33222 -24.3108,-0.60915 -29.5,10.500002 -1.8,3.7 -2.2,6 -1.9,10.8 0.4,5.6 1.2,7.5 10.7,23.8 l 10.2,17.7 -2,3.8 c -1,2 -27.7,48.5 -59.3,103.2 l -57.5,99.4 -6,1.6 c -7.6,2.1 -11.499999,5 -14.999999,10.9 -2.6,4.3 -2.8,5.4 -2.8,15.6 0,10.3 0.2,11.4 2.8,15.7 3.2,5.4 7.099999,8.5 12.999999,10.4 5.4,1.7 134,2 138.3,0.4 m -9.8,-105.8 c 13,-22.7 24,-42.31777 24.2,-42.31777 0.4,0 33.33833,55.55889 50.9,88.21777 l 4.97665,7.19721 H 204.65298 c 9.85167,-17.18322 19.617,-34.48344 31.29721,-53.09721 z"
     style="fill:#baed61"
     id="path3"
     sodipodi:nodetypes="ccsccscccsccccssscccccccccccccccscsccscccccccccscccccccccccsccccscccc" />
  <path
     d="m 402.95019,496.98329 a 119,119 0 0 0 63,-78 l 2.7,-9.6 0.3,-144 c 0.2,-97.5 0,-146.6 -0.7,-152 a 118,118 0 0 0 -65.3,-90.600002 l -6.3,-3 7.5,0.5 a 108.6,108.6 0 0 1 96,96.000002 c 1.5,13.2 1.5,274 0,287.3 a 109,109 0 0 1 -96,96 l -7.5,0.5 z"
     style="fill:#8bdd00"
     id="path4" />
  <path
     d="m 104.65019,420.98329 c -4.899459,-2.29788 -8.780112,-6.32094 -10.899999,-11.3 -2.3,-5.5 -2.1,-22 0.3,-27.3 3.3,-7 11.099999,-12.5 17.999999,-12.5 2.8,0 4.8,-3.2 62.1,-102.5 20.18153,-34.60476 40.08218,-69.37257 59.7,-104.3 0.3,-1.2 -3.3,-8.4 -9.5,-19.1 -4.19637,-6.73084 -7.77753,-13.82621 -10.7,-21.2 -1.32938,-11.16388 5.60677,-21.65269 16.4,-24.800002 10.6,-2.6 20.4,2.700002 26.6,14.300002 0.93313,2.00285 2.10859,3.88358 3.5,5.6 0.3,0 1.7,-2 3,-4.7 5.7,-10.6 12.2,-15.300002 21.7,-15.300002 10.31211,-0.33523 19.3402,6.870282 21.3,17.000002 1.7,7 0.3,11.1 -10.5,29.8 -5.2,9 -9.5,16.8 -9.5,17.5 0,0.7 26.8,47.6 59.5,104.3 l 59.4,103 4.4,0.6 c 5.4,0.8 9.4,2.8 13,6.5 4.4,4.7 5.7,9.3 5.7,20 0,11 -1.6,15.8 -6.6,20.5 -6.4,6 -4,5.8 -78.7,5.8 -65,0 -68.6,0 -70.7,-1.8 -2.7,-2.2 -3,-7.4 -0.4,-10.3 1.7,-1.8 4.2,-1.9 68.6,-1.9 46.8,0 67.5,-0.3 69.2,-1 3.3,-1.6 4.6,-5 4.6,-11.5 0.13333,-6.26667 -1.36667,-10.03333 -4.5,-11.3 -99.59414,-1.52752 -199.20586,-1.52752 -298.8,0 -3.3,1.4 -4.7,4.9 -4.7,11.3 0,6.6 1.4,10 4.7,11.4 1.7,0.8 22.3,1.1 68.8,1.1 h 66.4 l 2,2.7 c 2.7,3.3 2.7,5.4 0,8.7 l -2,2.6 h -68.7 c -64.7,0 -68.9,-0.1 -72.7,-1.8 m 116.5,-108.3 c 11.15121,-19.50582 22.48504,-38.90667 34,-58.2 1.8,-2.1 8.3,-2 10.2,0.2 0.8,1 16,27 33.8,57.7 17.8,30.7 32.5,56.4 33,56.8 0.3,0.4 13.1,0.7 28.3,0.5 l 27.7,-0.3 -58,-100.5 c -32,-55.2 -58.9,-101.7 -59.6,-103.2 -0.7,-1.5 -1.2,-3.6 -0.9,-4.7 0.4,-1 5.6,-10.4 11.6,-20.7 4.23855,-6.72009 7.9176,-13.77718 11,-21.1 0,-2.6 -4.2,-7.3 -6.5,-7.3 -3.9,0 -6.4,2.7 -12.5,13.3 l -26.1,45.2 c -5.8,9.8 -112.2,194.1 -113.8,197.3 l -1.2,2.3 28.1,-0.3 28.2,-0.3 z m 90.9,51.4 c -16.98573,-29.88195 -34.2867,-59.58361 -51.9,-89.1 -0.4,0 -35.4,60.3 -51.8,89.1 l -3.3,5.8 h 110.3 z m -64.6,-223.5 c 1.49222,-2.3285 2.73253,-4.80912 3.7,-7.4 0,-1.7 -9.9,-18.6 -11.7,-20 -4.3,-3.3 -11.3,0.1 -11.3,5.4 0,2.4 13.8,28.2 15,28.3 0.4,0 2.3,-2.8 4.3,-6.3"
     style="fill:#228b22;stroke:#228b22;stroke-width:2;stroke-dasharray:none;stroke-opacity:1;fill-opacity:1"
     id="path6"
     sodipodi:nodetypes="cccscccccccccccsccccscsccsccccscsccccsccccsccccscccsccccccccccccccccscc" />
  <path
     d="m 118.35925,515.18505 c -28.255261,-2.25338 -54.844165,-14.27496 -75.200005,-34 -18.12971,-17.07647 -30.64834,-39.25432 -35.8999998,-63.6 -2.1,-9.6 -2.2,-12 -2.6000001,-75.5 l -0.4,-65.5 2.2000001,-2.7 c 2.52678,-3.46804 7.5946098,-3.75763 10.4999998,-0.6 1.9,2 2,5 2.5,69.2 l 0.5,67.1 2.6,9.7 c 10.41283,38.69672 40.8749,68.77658 79.700005,78.7 l 9.6,2.6 142,0.4 c 103.5,0.2 144.6,0 151.5,-0.9 41.19779,-4.95103 76.01124,-32.86382 89.8,-72 6.4,-18.3 6.2,-13 6.2,-168 0,-155 0.2,-149.6 -6.2,-168.000002 -11.53948,-32.37265 -37.5462,-57.49152 -70.3,-67.9 -15,-4.5 -22,-5 -87.8,-5 h -61.7 l -2.5,-2.4 c -4.1,-4.2 -2.4,-9.9000001 3.5,-11.7000001 2.5,-0.6999999 23,-0.8999999 67,-0.5999999 60.4,0.4999999 64,0.5999999 73.3,2.5999999 22.81515,4.5793901 43.86321,15.5368601 60.7,31.6000001 18.39833,17.27683 31.03655,39.79522 36.2,64.500002 l 2.3,10.5 v 146 c 0,135.8 0,146.7 -1.7,154.7 -9.22209,49.82021 -47.82638,89.01842 -97.5,99 l -9.8,2.2 -139.5,0.2 c -76.7,0.1 -143.7,-0.1 -149,-0.6 m -111.9000048,-267.8 -2.2000001,-2.7 0.4,-66 c 0.4000001,-64 0.5000001,-66.4 2.6000001,-76 C 17.582745,54.314618 55.663935,16.705028 104.15925,6.9850479 c 9.3,-2 12.8,-2.0999999 73.2,-2.5999999 44,-0.3 64.6,-0.1 67,0.5999999 5.7,1.7 7.6,7.0000001 4.1,11.3000001 l -1.9,2.3 -67.3,0.6 -67.4,0.5 -9.6,2.7 c -38.799585,9.90577 -69.255995,39.94183 -79.700005,78.600002 l -2.6,9.6 -0.5,67.7 c -0.5,64.7 -0.6,67.7 -2.5,69.7 -2.90539,3.15763 -7.9732198,2.86804 -10.4999998,-0.6"
     style="fill:#228b22;fill-opacity:1;stroke:#228b22;stroke-width:8.5;stroke-dasharray:none;stroke-opacity:1"
     id="path1-8" />
</svg>
