<?xml version="1.0" encoding="UTF-8" standalone="no"?>
<!-- Created with Inkscape (http://www.inkscape.org/) -->

<svg
   version="1.1"
   id="svg1"
   width="1063.98"
   height="1063.98"
   viewBox="0 0 1063.98 1063.98"
   sodipodi:docname="doc_travail_logos.svg"
   inkscape:version="1.4.2 (ebf0e940, 2025-05-08)"
   inkscape:export-filename="doc_travail_logos.png"
   inkscape:export-xdpi="96"
   inkscape:export-ydpi="96"
   xmlns:inkscape="http://www.inkscape.org/namespaces/inkscape"
   xmlns:sodipodi="http://sodipodi.sourceforge.net/DTD/sodipodi-0.dtd"
   xmlns="http://www.w3.org/2000/svg"
   xmlns:svg="http://www.w3.org/2000/svg">
  <defs
     id="defs1" />
  <sodipodi:namedview
     id="namedview1"
     pagecolor="#ffffff"
     bordercolor="#000000"
     borderopacity="0.25"
     inkscape:showpageshadow="2"
     inkscape:pageopacity="0.0"
     inkscape:pagecheckerboard="0"
     inkscape:deskcolor="#d1d1d1"
     inkscape:zoom="0.18987775"
     inkscape:cx="1279.7708"
     inkscape:cy="1653.6956"
     inkscape:window-width="1680"
     inkscape:window-height="997"
     inkscape:window-x="226"
     inkscape:window-y="1105"
     inkscape:window-maximized="0"
     inkscape:current-layer="g1" />
  <g
     inkscape:groupmode="layer"
     inkscape:label="Image"
     id="g1">
    <circle
       style="fill:#ffffff;fill-opacity:1;stroke:none;stroke-width:0.651187;stroke-opacity:1"
       id="path2-6-1-4"
       cx="2418.4031"
       cy="2409.3301"
       r="346.09952" />
    <circle
       style="fill:#ffffff;fill-opacity:1;stroke:none;stroke-width:0.651187;stroke-opacity:1"
       id="path2-6-1-4-4"
       cx="3395.0366"
       cy="2871.5732"
       r="346.09952" />
    <path
       id="path2-6-1-4-9"
       style="fill:#2e8b57;fill-opacity:1;stroke:none;stroke-width:1;stroke-opacity:1;font-variation-settings:normal;opacity:1;vector-effect:none;stroke-linecap:butt;stroke-linejoin:miter;stroke-miterlimit:4;stroke-dasharray:none;stroke-dashoffset:0;-inkscape-stroke:none;stop-color:#000000;stop-opacity:1"
       d="M 3180.5801 2669.4844 L 3148.4512 2669.5039 A 346.09952 346.09952 0 0 0 3118.2051 2716.7578 C 3155.2965 2716.6204 3207.5234 2716.8533 3252.2695 2717.4883 C 3295.1536 2718.0968 3297.3955 2718.221 3299.9863 2720.127 C 3301.4815 2721.227 3302.7193 2722.4997 3302.7363 2722.9551 C 3302.7533 2723.4105 3299.057 2727.795 3294.5195 2732.6973 C 3284.8186 2743.1781 3187.2853 2838.6952 3180.7461 2844.1191 C 3178.2836 2846.1615 3168.2848 2855.662 3158.5273 2865.2305 C 3148.7698 2874.799 3140.6093 2882.627 3140.3926 2882.627 C 3138.9172 2882.627 3134.723 2873.4382 3126.2422 2851.627 C 3114.3019 2820.9191 3109.7016 2809.6202 3103.2383 2795.127 C 3100.714 2789.4667 3097.1347 2781.4412 3093.9883 2774.3848 A 346.09952 346.09952 0 0 0 3078.123 2863.4141 C 3081.2514 2873.2588 3083.1089 2881.4767 3084.5371 2890.4414 C 3087.0841 2906.4286 3086.9224 2914.9746 3081.3887 2929.0352 A 346.09952 346.09952 0 0 0 3092.1367 2977.791 C 3094.98 2975.67 3097.7685 2973.6169 3099.1582 2972.627 C 3103.2761 2969.6936 3145.1832 2926.8719 3152.4941 2918.127 C 3160.9406 2908.0239 3185.0173 2885.8885 3200.0684 2874.3887 C 3206.3271 2869.6068 3208.6395 2863.7578 3212.9531 2863.7578 C 3214.2395 2863.7578 3220.666 2855.3363 3224.043 2853.5488 C 3228.8356 2851.012 3234.6425 2842.7206 3259.4512 2818.5234 C 3307.7489 2771.4162 3316.7069 2779.7107 3347.2207 2758.416 C 3353.2977 2754.1751 3362.6457 2747.7111 3367.9922 2744.0527 C 3379.6318 2736.0881 3380.4935 2735.2034 3378.707 2733.0508 C 3377.6417 2731.767 3377.6376 2731.3265 3378.6875 2730.6777 C 3381.7849 2728.7634 3373.6079 2718.4461 3355.9512 2701.9883 C 3339.9148 2687.0408 3332.8047 2681.4219 3322.9453 2675.9082 C 3310.4167 2668.9019 3321.4164 2669.4001 3180.5801 2669.4844 z " />
    <path
       style="fill:#2e8b57;fill-opacity:1"
       d="m 503.04398,1000.5948 c -27.40318,-1.6742 -68.64845,-8.47356 -96,-15.82576 -37.90504,-10.1891 -65.54212,-20.2336 -94,-34.1635 -15.6031,-7.6377 -50.34807,-26.74136 -56.98501,-31.33186 -1.38325,-0.9568 -6.33999,-4.2156 -11.01499,-7.2419 -10.10417,-6.54081 -36.30247,-26.32091 -48.24539,-36.42591 -4.67695,-3.9572 -12.04753,-11.1244 -16.37908,-15.927 -4.33154,-4.8027 -11.39878,-12.59 -15.70496,-17.3051 -19.24298,-21.0704 -46.38251,-61.1161 -60.70483,-89.573 -35.231805,-70.0017 -49.268125,-139.99661 -43.114695,-214.99996 2.05469,-25.04437 9.36648,-65.95189 14.83539,-82.99999 12.74347,-39.72498 27.415435,-71.48629 47.549755,-102.93388 7.19105,-11.23163 31.01912,-43.06022 42.34751,-56.56612 8.50193,-10.13616 32.82145,-34.50661 42.20425,-42.29266 7.7102,-6.39809 9.88723,-7.70735 12.81574,-7.70735 5.02385,0 6.60193,1.1328 11.87784,8.52633 12.66684,17.75099 13.31847,18.99384 13.31847,25.4026 0,3.27928 -0.5175,6.6052 -1.15,7.39093 -0.6325,0.78573 -6.56029,6.13673 -13.17287,11.8911 -24.9705,21.72976 -45.7306,46.38882 -70.11982,83.28905 -23.42236,35.43739 -33.81544,62.81236 -43.85032,115.49999 -11.9611,62.80117 -13.31566,97.2222 -5.38887,136.93756 6.14905,30.8084 32.82793,95.8246 52.34427,127.5624 3.72028,6.05 7.95067,12.9664 9.40087,15.3696 9.41944,15.6099 33.36097,41.5349 49.63673,53.749 12.50174,9.3819 45.03075,29.1079 62.31445,37.7883 43.63281,21.9137 100.27806,37.3024 150.00382,40.75121 22.47064,1.5584 74.93964,-0.1874 93.68174,-3.11721 13.23745,-2.0693 15.99753,-2.61 41.5,-8.1301 26.17826,-5.6664 69.60199,-19.1602 86.5,-26.8796 1.1,-0.5025 5.375,-2.3471 9.5,-4.0992 15.95779,-6.7781 65.05709,-32.1536 75.99999,-39.2784 29.2135,-19.0205 53.3008,-37.1081 70.0547,-52.6054 5.38,-4.9765 10.6286,-9.0482 11.6635,-9.0482 2.4395,0 4.2818,-1.8837 4.2818,-4.3782 0,-1.1688 3.5876,-5.4852 8.7688,-10.55 10.4129,-10.1789 20.7957,-21.7797 32.0896,-35.8541 25.1572,-31.3505 46.9931,-75.6634 54.80425,-111.21766 2.0147,-9.16989 2.6265,-15.24844 3.0195,-30 0.4694,-17.6146 0.6519,-18.97859 3.8142,-28.5 6.6129,-19.91067 10.5036,-42.38162 10.5036,-60.66372 0,-10.0612 -3.5149,-33.863 -6.4475,-43.66087 -11.3923,-38.0616 -34.66075,-69.86019 -67.05245,-91.63359 -10.2803,-6.91032 -33.666,-18.10635 -44,-21.06519 -37.944,-10.8642 -76.87,-8.66714 -110.9294,6.26108 -10.0829,4.41933 -30.4452,17.89751 -41.31299,27.34584 -25.55732,22.21925 -45.24118,55.02215 -51.65782,86.08709 -5.27265,25.52653 -5.56321,43.84088 -1.11495,70.27705 1.38334,8.22123 2.51517,15.40823 2.51517,15.97111 0,1.45211 -12.36865,-10.94348 -16.88203,-16.9188 -2.07718,-2.75 -7.74553,-10.31605 -12.59634,-16.81344 -4.85081,-6.49739 -12.09873,-14.75984 -16.10648,-18.36099 -11.21732,-10.07931 -12.79855,-15.90452 -9.45329,-34.82556 10.2559,-58.00802 35.4952,-100.71036 75.46435,-127.67806 4.90942,-3.31245 10.08442,-6.82454 11.5,-7.80465 6.12255,-4.23907 32.02598,-20.00945 36.80378,-22.40662 12.9309,-6.48793 31.0165,-11.59603 49.7285,-14.04536 15.9108,-2.08266 51.3322,-2.1043 66.1174,-0.0404 15.0693,2.10357 36.8052,7.58308 43.4241,10.947 1.375,0.69882 6.325,2.74447 11,4.5459 39.6778,15.28913 69.06175,39.75901 96.0445,79.98218 7.2389,10.79118 20.4886,36.28559 23.9066,46 6.1434,17.46054 7.377,21.50492 10.5874,34.71057 4.0878,16.8152 7.47186,36.83633 10.62373,62.8532 1.9606,16.18319 2.2923,23.66124 2.2811,51.43623 -0.014,33.94654 -1.1323,47.97414 -6.53643,81.96805 -8.6131,54.1779 -26.8847,97.8785 -64.40225,154.0319 -25.81195,38.6336 -67.09805,78.3409 -115.18655,110.78202 -6.7001,4.5199 -12.4288,8.218 -12.7306,8.218 -0.3018,0 -3.1019,1.6333 -6.2224,3.6295 -12.4494,7.9638 -48.1391,26.93306 -61.8651,32.88166 -28.2514,12.2438 -71.72922,25.303 -105.99999,31.8387 -32.47871,6.194 -45.87945,8.16836 -72.5,10.68176 -8.92064,0.8423 -43.83081,1.0058 -56,0.2624 z M 605.48847,839.21097 c -0.4054,-0.6559 -2.01856,-0.8374 -4.05215,-0.4559 -3.31391,0.6217 -3.42585,0.527 -5.84413,-4.9412 -4.13636,-9.353 -6.07403,-16.4559 -4.96766,-18.2099 0.543,-0.8608 3.89702,-2.6063 7.45337,-3.8789 3.55634,-1.2726 12.76608,-4.5382 20.46608,-7.257 25.22462,-8.9064 50.54128,-20.6621 69.28759,-32.1735 34.5852,-21.2375 44.5174,-27.6964 56.2124,-36.5552 23.8676,-18.0793 50.0807,-40.6855 62.0786,-53.5365 10.9648,-11.7446 25.686,-29.5115 30.3097,-36.5805 1.1614,-1.7758 3.9117,-4.2164 6.1117,-5.4236 15.0022,-8.232 29.4408,-16.7317 32.915,-19.37632 6.4964,-4.94522 6.6719,-4.97398 4.9323,-0.80869 -4.8921,11.71391 -13.3123,26.77911 -25.8708,46.28701 -14.3942,22.3595 -48.5087,58.2858 -76.9989,81.0882 -27.9753,22.3903 -54.3742,40.5797 -74.9776,51.661 -32.39867,17.4252 -57.43615,28.8117 -80.72603,36.7122 -14.46682,4.9075 -15.31698,5.0871 -16.32947,3.4488 z m -187.44449,-43.891 c -31.0845,-3.1359 -40.6286,-4.735 -66.5,-11.142 -47.28153,-11.7091 -91.74067,-31.5458 -123.24933,-54.9912 -32.50404,-24.186 -50.01111,-43.1045 -66.10806,-71.4378 -6.39495,-11.2562 -6.72341,-14.7267 -1.62392,-17.1585 4.23733,-2.0206 7.57749,-1.1146 16.91198,4.5875 5.16827,3.1571 6.65107,3.5954 11.53448,3.4092 6.03318,-0.2301 16.48739,-3.725 24.53484,-8.202 3.06801,-1.7069 7.21279,-3.0045 10.7267,-3.3584 7.19671,-0.7247 21.71216,-7.5153 30.87524,-14.44411 7.57806,-5.73025 28.9704,-23.80043 42.93525,-36.26754 5.24545,-4.68287 15.98645,-13.91431 23.86889,-20.51431 7.88244,-6.6 17.31571,-14.62289 20.96282,-17.82865 8.56718,-7.53043 13.97541,-10.23628 28.53588,-14.27709 6.54763,-1.81709 12.23022,-3.66166 12.62798,-4.09903 0.39777,-0.43738 2.20396,-3.49523 4.01377,-6.79523 8.20216,-14.95584 18.96517,-28.04639 31.95348,-38.86354 4.675,-3.89352 15.475,-13.86376 24,-22.1561 22.96238,-22.33571 32.53532,-29.53679 39.1106,-29.42031 2.97895,0.0528 4.53981,1.29269 12.8894,10.23909 20.70215,22.18192 47.62993,44.88539 67,56.48935 5.59652,3.35269 13.71026,12.29582 15.96708,17.59927 3.20293,7.52673 10.18938,15.52886 30.65558,35.11224 10.3463,9.9 28.95127,27.90412 41.34439,40.00916 22.1903,21.67449 33.59994,31.09603 55.03294,45.4437 5.225,3.4977 12.7868,9.2142 16.804,12.7033 8.421,7.314 10.6121,7.7664 16.196,3.3438 4.1612,-3.2957 6.709,-3.6092 16.4144,-2.0198 3.253,0.5327 10.7905,1.0434 16.75,1.135 5.9596,0.092 10.8356,0.528 10.8356,0.9699 0,3.2467 -35.6826,34.7493 -55.6731,49.1513 -34.2952,24.7077 -77.06067,47.7986 -114.82689,62.0001 -4.4,1.6546 -10.25,3.8844 -13,4.9552 -5.84543,2.276 -22.19119,7.575 -35,11.3463 -19.64409,5.7837 -56.41722,11.8286 -84.5,13.8904 -12.78999,0.939 -54.59913,1.3374 -62,0.5908 z m 60.47374,-29.0582 c 6.03556,-1.1657 11.32863,-2.3388 11.76238,-2.6069 1.17267,-0.7247 -0.52577,-3.2362 -3.48902,-5.1592 -14.0709,-9.1314 -62.62702,-54.5952 -71.36821,-66.8232 -2.40948,-3.3706 -5.0264,-6.6641 -5.81537,-7.3189 -0.78898,-0.6548 -5.62603,-2.6627 -10.74901,-4.462 -6.33927,-2.2265 -9.31451,-3.7665 -9.31451,-4.8214 0,-1.288 7.11202,-9.6602 18.20454,-21.4302 3.95677,-4.1984 4.61849,-3.7921 16.54685,10.1608 6.54314,7.6537 30.55249,30.8164 51.6996,49.8765 7.39804,6.668 19.09804,17.4714 26,24.0076 17.98363,17.0307 18.20327,17.1539 29.95467,16.7937 5.27688,-0.1617 12.13429,-0.9429 15.23868,-1.7359 3.10439,-0.793 7.37939,-1.4578 9.5,-1.4773 2.12061,-0.02 4.98066,-0.6785 6.35566,-1.4646 1.375,-0.786 3.85,-1.4592 5.5,-1.4961 3.90491,-0.087 21.88889,-9.0691 22.28585,-11.1304 0.34322,-1.7822 -27.70633,-29.4299 -39.78585,-39.2159 -4.125,-3.3418 -10.875,-9.0399 -15,-12.6624 -4.125,-3.6225 -10.70119,-9.1232 -14.61375,-12.2238 -3.91256,-3.1006 -12.68756,-11.536 -19.5,-18.7455 -6.81244,-7.2094 -16.79968,-17.1534 -22.19388,-22.0978 -5.39419,-4.9443 -11.08404,-10.44349 -12.64411,-12.22031 l -2.83649,-3.23058 0.82888,-18.48858 c 0.80417,-17.93758 2.32359,-25.98859 4.90467,-25.98859 1.64783,0 5.44298,6.28247 8.74334,14.47368 4.08778,10.14553 13.5603,20.72429 28.22952,31.52632 5.60177,4.125 15.18348,11.77496 21.29269,16.99996 19.49106,16.6701 26.20262,22.0659 29.78913,23.9493 1.925,1.0109 4.35724,2.7858 5.40498,3.9443 1.04775,1.1586 2.78634,2.1064 3.86355,2.1064 1.76662,0 1.89099,-0.4654 1.2691,-4.75 -0.80763,-5.5642 -6.24968,-15.924 -15.35807,-29.2365 -10.52366,-15.38101 -12.16431,-19.85851 -15.75408,-42.9945 -1.90286,-12.26387 -4.82662,-20.88915 -9.8271,-28.99056 -1.97911,-3.20642 -3.59838,-6.15828 -3.59838,-6.5597 0,-1.83287 -7.86546,-11.52569 -13.68819,-16.86835 -3.62134,-3.32276 -7.53583,-8.08231 -8.96201,-10.89674 -1.39272,-2.74841 -5.38063,-14.26857 -8.86202,-25.60036 -7.90926,-25.74435 -8.9339,-28.60325 -10.25146,-28.60325 -4.47994,0 -36.33269,30.37722 -59.66659,56.90263 -13.36714,15.19542 -22.38046,23.86758 -36.56973,35.18552 -10.41493,8.30737 -12.25538,9.3421 -18.753,10.54325 -3.13866,0.58022 -6.98501,1.716 -8.54745,2.52397 -3.92121,2.02773 -13.83349,9.53051 -22.19955,16.80322 -10.76959,9.36212 -23.99595,20.07132 -45.67052,36.97877 -3.48122,2.7156 -8.80448,7.0414 -11.82948,9.6129 -3.025,2.5714 -14.275,10.6183 -25,17.8818 -19.01038,12.8747 -33.00001,24.7843 -33.00001,28.0933 0,2.576 15.9908,18.1536 25.94503,25.2745 10.53916,7.5393 24.25028,14.7958 38.05498,20.1403 5.225,2.0228 12.75223,5.0013 16.72718,6.6188 3.97495,1.6176 8.81245,2.941 10.75,2.941 3.17269,0 3.52434,0.2734 3.53813,2.75 0.008,1.5125 0.34592,3.2086 0.75,3.769 1.11414,1.5452 12.34338,5.0333 25.73469,7.9939 6.6,1.4591 17.4,3.9729 24,5.5861 34.08525,8.3314 85.30507,11.0128 111.97374,5.862 z M 358.29398,521.5373 c -1.7875,-4.25558 -3.25,-8.72041 -3.25,-9.92185 0,-1.20144 -0.42738,-3.30852 -0.94972,-4.68239 -0.80853,-2.1266 0.36561,-5.14673 7.89796,-20.3151 13.70115,-27.59086 15.32668,-35.49794 11.82118,-57.50175 -3.61791,-22.70943 -9.98855,-40.63812 -32.80267,-92.31539 -5.58463,-12.65 -15.7044,-36.56384 -22.48839,-53.14187 -6.78398,-16.57803 -17.93448,-41.77803 -24.77888,-56 -11.87589,-24.67688 -17.32515,-37.71143 -19.71622,-47.16089 -0.59882,-2.36651 -2.01724,-5.23122 -3.15205,-6.36603 -1.79166,-1.79166 -2.82305,-1.97734 -7.83434,-1.41037 -6.24285,0.70629 -17.72043,-1.19133 -22.65576,-3.74575 -3.8986,-2.01783 -11.96658,-10.36606 -13.84628,-14.32722 -2.2786,-4.80179 -3.75713,-14.11312 -3.02074,-19.02368 1.19924,-7.99715 -5.9187,-7.40194 84.87002,-7.09689 l 81.15589,0.27269 3.28706,2.34449 c 5.05184,3.6032 10.21294,11.9032 10.21294,16.42428 0,8.13018 -4.77649,14.72645 -14.78112,20.41257 l -6.71888,3.81866 -29.84452,0.30534 -29.84452,0.30533 0.67529,2.69467 c 0.37142,1.48206 2.14456,5.16966 3.94032,8.19466 1.79576,3.025 4.9175,8.5126 6.93721,12.19466 2.01971,3.68206 4.81625,8.05428 6.21453,9.71605 l 2.54234,3.02139 127.68967,-0.0765 c 140.83628,-0.0843 129.83622,-0.58082 142.36465,6.42548 9.85943,5.51371 16.97008,11.13209 33.00647,26.0796 17.65672,16.45781 25.83351,26.77595 22.7361,28.69025 -1.04987,0.64886 -1.04631,1.08897 0.0192,2.37283 1.78646,2.15255 0.92378,3.03834 -10.71583,11.00293 -5.3465,3.65842 -14.693,10.12154 -20.76999,14.36248 -30.51379,21.29461 -30.86977,21.60358 -79.16749,68.71081 -24.8087,24.19719 -33.13082,31.71319 -37.92341,34.25 -3.37699,1.7875 -7.19244,3.25 -8.47879,3.25 -4.31364,0 -15.32386,4.97998 -21.58253,9.76191 -15.05111,11.49975 -39.1277,33.63497 -47.57415,43.73809 -7.31096,8.74491 -49.21811,51.5666 -53.33605,54.49999 -1.93024,1.375 -6.55878,4.80045 -10.28564,7.61211 -6.13963,4.63191 -15.15318,10.4077 -16.19072,10.37484 -0.22668,-0.007 -1.87464,-3.49489 -3.66214,-7.75046 z m 89.50908,-117.63371 c 9.7575,-9.56847 19.75568,-19.06834 22.21817,-21.11081 6.53917,-5.42383 104.07183,-100.94182 113.77275,-111.42262 4.5375,-4.90229 8.23586,-9.28587 8.21857,-9.7413 -0.0173,-0.45542 -1.25478,-1.72805 -2.75,-2.82805 -2.59075,-1.90596 -4.83442,-2.03002 -47.71857,-2.63855 -79.45455,-1.12747 -182.5,-0.98932 -182.5,0.24467 0,1.19241 9.88219,24.48913 20.31602,47.89389 3.55525,7.975 9.47431,21.25 13.15347,29.5 6.46335,14.49319 11.06368,25.79208 23.00389,56.5 8.48087,21.81117 12.67534,31 14.15071,31 0.21674,0 8.37749,-7.82876 18.13499,-17.39723 z M 711.04397,253.23402 c -12.3734,-0.66793 -16.6265,-2.4299 -22.8031,-9.44687 -9.76647,-11.09529 -9.26128,-26.37682 1.0739,-32.48634 4.052,-2.39525 5.0957,-2.52095 24.9095,-3 18.8958,-0.45685 20.9186,-0.67816 23.4421,-2.5647 5.1505,-3.85048 8.5792,-9.04462 9.1164,-13.81047 0.6487,-5.75544 -2.7418,-11.96834 -8.8381,-16.19501 l -4.2258,-2.92982 -53.0875,-0.64891 c -29.19804,-0.3569 -57.36239,-0.93937 -62.58739,-1.29438 -18.05232,-1.22657 -26.87243,-2.42701 -29.2426,-3.98001 -2.62739,-1.72153 -6.1375,-7.54098 -7.15763,-11.86671 -1.59959,-6.78288 8.85771,-19.28043 20.6417,-24.66896 l 6.25853,-2.86187 65,-0.45913 c 35.74999,-0.25252 68.14999,-0.0562 71.99999,0.43631 4.9874,0.63799 9.6362,2.18276 16.1692,5.37294 11.6226,5.67559 18.5109,12.86481 24.8835,25.97072 5.3222,10.9454 7.4186,19.42703 7.4152,30 -0.01,19.78427 -7.3605,35.37109 -23.119,49 -15.4473,13.35985 -29.7817,17.05625 -59.8489,15.43321 z"
       id="path1" />
    <circle
       style="fill:#ffffff;fill-opacity:0;stroke:none;stroke-opacity:1"
       id="path2"
       cx="531.98981"
       cy="531.98981"
       r="531.48981" />
    <path
       d="m 1874.2813,462.80078 c -4.4799,0 -36.3341,30.37693 -59.668,56.90234 -13.3671,15.19543 -22.3791,23.86761 -36.5684,35.18555 -10.4149,8.30737 -12.2563,9.34182 -18.7539,10.54297 -3.1387,0.58022 -6.9844,1.71742 -8.5469,2.52539 -3.9212,2.02773 -13.8332,9.53003 -22.1992,16.80274 -10.7696,9.36212 -23.9974,20.07106 -45.6719,36.97851 -3.4813,2.7156 -8.8031,7.04178 -11.8281,9.61328 -3.025,2.5714 -14.275,10.61736 -25,17.88086 -19.0104,12.8747 -33,24.78475 -33,28.09375 0,2.576 15.9892,18.15449 25.9434,25.27539 10.5392,7.5393 24.2519,14.79417 38.0566,20.13867 5.225,2.0228 12.7516,5.00164 16.7266,6.61914 3.9749,1.61761 8.8124,2.94141 10.75,2.94141 3.1727,0 3.5233,0.2734 3.5371,2.75 0.01,1.5125 0.3459,3.20913 0.75,3.76953 1.1141,1.5452 12.345,5.03354 25.7363,7.99414 6.6,1.4591 17.4,3.97274 24,5.58594 34.0852,8.3314 85.3041,11.01213 111.9727,5.86133 6.0356,-1.1657 11.328,-2.33932 11.7617,-2.60742 1.1727,-0.7247 -0.5251,-3.23521 -3.4883,-5.15821 -14.0709,-9.1314 -62.626,-54.59622 -71.3672,-66.82422 -2.4095,-3.37059 -5.0274,-6.66355 -5.8164,-7.31835 -0.789,-0.6548 -5.625,-2.6636 -10.748,-4.4629 -6.3393,-2.22649 -9.3145,-3.76541 -9.3145,-4.82031 0,-1.288 7.1106,-9.65969 18.2031,-21.42969 3.9568,-4.1984 4.6185,-3.79274 16.5469,10.16016 6.5431,7.6537 30.5521,30.81685 51.6992,49.87695 7.398,6.668 19.098,17.47162 26,24.00782 17.9836,17.0307 18.2037,17.15317 29.9551,16.79297 5.2769,-0.1617 12.1339,-0.94333 15.2383,-1.73633 3.1044,-0.793 7.3794,-1.45707 9.5,-1.47657 2.1206,-0.02 4.9824,-0.67874 6.3574,-1.46484 1.375,-0.786 3.85,-1.45919 5.5,-1.49609 3.9049,-0.087 21.8883,-9.06956 22.2852,-11.13086 0.3433,-1.7822 -27.7057,-29.42885 -39.7852,-39.21485 -4.125,-3.3418 -10.875,-9.0396 -15,-12.66211 -4.125,-3.62249 -10.7026,-9.124 -14.6152,-12.2246 -3.9125,-3.1006 -12.6875,-11.5366 -19.5,-18.7461 -6.8124,-7.2094 -16.7992,-17.15325 -22.1934,-22.09765 -5.3942,-4.9443 -11.0844,-10.44389 -12.6445,-12.22071 l -2.8359,-3.23047 0.8281,-18.48828 c 0.8042,-17.93758 2.3251,-25.98828 4.9062,-25.98828 1.6478,0 5.4419,6.2834 8.7422,14.47461 4.0878,10.14553 13.5612,20.72336 28.2305,31.52539 5.6017,4.125 15.1837,11.775 21.293,17 19.491,16.6701 26.2025,22.06582 29.789,23.94922 1.925,1.0109 4.3565,2.78681 5.4043,3.94531 1.0477,1.1586 2.7861,2.10547 3.8633,2.10547 1.7666,0 1.8914,-0.4654 1.2695,-4.75 -0.8076,-5.5642 -6.2509,-15.92383 -15.3593,-29.23633 -10.5236,-15.38101 -12.1642,-19.85815 -15.7539,-42.99414 -1.9029,-12.26387 -4.8258,-20.88882 -9.8262,-28.99023 -1.9791,-3.20642 -3.5977,-6.15913 -3.5977,-6.56055 0,-1.83287 -7.8667,-11.52648 -13.6894,-16.86914 -3.6213,-3.32276 -7.5348,-8.08205 -8.961,-10.89648 -1.3927,-2.74841 -5.3818,-14.26782 -8.8632,-25.59961 -7.9093,-25.74435 -8.9324,-28.60352 -10.25,-28.60352 z"
       style="fill:#2e8b57"
       id="path10" />
    <path
       d="m 1875.1543,424.36133 c -6.5753,-0.11648 -16.147,7.08421 -39.1094,29.41992 -8.525,8.29234 -19.325,18.26273 -24,22.15625 -12.9883,10.81715 -23.7529,23.90744 -31.9551,38.86328 -1.8098,3.3 -3.6158,6.35754 -4.0136,6.79492 -0.3977,0.43737 -6.0794,2.28252 -12.627,4.09961 -14.5605,4.04081 -19.9699,6.74692 -28.5371,14.27735 -3.6471,3.20576 -13.0805,11.22812 -20.9629,17.82812 -7.8825,6.6 -18.6218,15.8308 -23.8672,20.51367 -13.9649,12.46711 -35.3574,30.53733 -42.9355,36.26758 -9.1631,6.92881 -23.6783,13.72061 -30.875,14.44531 -3.5139,0.3539 -7.6586,1.65053 -10.7266,3.35743 -8.0475,4.477 -18.5019,7.97302 -24.5351,8.20312 -4.8834,0.1862 -6.367,-0.25306 -11.5352,-3.41016 -9.3345,-5.7021 -12.6748,-6.60849 -16.9121,-4.58789 -5.0995,2.4318 -4.77,5.90201 1.625,17.15821 16.0969,28.3333 33.6033,47.25345 66.1074,71.43945 31.5086,23.4454 75.9685,43.28113 123.25,54.99023 25.8714,6.407 35.4155,8.00668 66.5,11.14258 7.4009,0.7466 49.21,0.34721 62,-0.59179 28.0828,-2.0618 64.8559,-8.10693 84.5,-13.89063 12.8088,-3.7713 29.1546,-9.0697 35,-11.3457 2.75,-1.0708 8.6,-3.30048 13,-4.95508 37.7662,-14.2015 80.531,-37.2923 114.8262,-62 19.9905,-14.402 55.6738,-45.90369 55.6738,-49.15039 0,-0.4419 -4.8763,-0.8787 -10.8359,-0.9707 -5.9595,-0.0916 -13.497,-0.60207 -16.75,-1.13477 -9.7054,-1.5894 -12.2529,-1.27617 -16.4141,2.01953 -5.5839,4.4226 -7.7762,3.97025 -16.1972,-3.34375 -4.0172,-3.4891 -11.5778,-9.20542 -16.8028,-12.70312 -21.433,-14.34767 -32.8429,-23.76887 -55.0332,-45.44336 -12.3931,-12.10504 -30.9994,-30.10977 -41.3457,-40.00977 -20.4662,-19.58338 -27.4514,-27.5846 -30.6543,-35.11133 -2.2569,-5.30345 -10.3703,-14.24692 -15.9668,-17.59961 -19.3701,-11.60396 -46.2979,-34.30831 -67,-56.49023 -8.3496,-8.9464 -9.9117,-10.18548 -12.8906,-10.23828 z m -0.873,38.43945 c 1.3176,0 2.3407,2.85917 10.25,28.60352 3.4814,11.33179 7.4705,22.8512 8.8632,25.59961 1.4262,2.81443 5.3397,7.57372 8.961,10.89648 5.8227,5.34266 13.6894,15.03627 13.6894,16.86914 0,0.40142 1.6186,3.35413 3.5977,6.56055 5.0004,8.10141 7.9233,16.72636 9.8262,28.99023 3.5897,23.13599 5.2303,27.61313 15.7539,42.99414 9.1084,13.3125 14.5517,23.67213 15.3593,29.23633 0.6219,4.2846 0.4971,4.75 -1.2695,4.75 -1.0772,0 -2.8156,-0.94687 -3.8633,-2.10547 -1.0478,-1.1585 -3.4793,-2.93441 -5.4043,-3.94531 -3.5865,-1.8834 -10.298,-7.27912 -29.789,-23.94922 -6.1093,-5.225 -15.6913,-12.875 -21.293,-17 -14.6693,-10.80203 -24.1427,-21.37986 -28.2305,-31.52539 -3.3003,-8.19121 -7.0944,-14.47461 -8.7422,-14.47461 -2.5811,0 -4.102,8.0507 -4.9062,25.98828 l -0.8281,18.48828 2.8359,3.23047 c 1.5601,1.77682 7.2503,7.27641 12.6445,12.22071 5.3942,4.9444 15.381,14.88825 22.1934,22.09765 6.8125,7.2095 15.5875,15.6455 19.5,18.7461 3.9126,3.1006 10.4902,8.60211 14.6152,12.2246 4.125,3.62251 10.875,9.32031 15,12.66211 12.0795,9.786 40.1285,37.43265 39.7852,39.21485 -0.3969,2.0613 -18.3803,11.04386 -22.2852,11.13086 -1.65,0.0369 -4.125,0.71009 -5.5,1.49609 -1.375,0.7861 -4.2368,1.44485 -6.3574,1.46484 -2.1206,0.0195 -6.3956,0.68357 -9.5,1.47657 -3.1044,0.793 -9.9614,1.57463 -15.2383,1.73633 -11.7514,0.3602 -11.9715,0.23773 -29.9551,-16.79297 -6.902,-6.5362 -18.602,-17.33982 -26,-24.00782 -21.1471,-19.0601 -45.1561,-42.22325 -51.6992,-49.87695 -11.9284,-13.9529 -12.5901,-14.35856 -16.5469,-10.16016 -11.0925,11.77 -18.2031,20.14169 -18.2031,21.42969 0,1.0549 2.9752,2.59382 9.3145,4.82031 5.123,1.7993 9.959,3.8081 10.748,4.4629 0.789,0.6548 3.4069,3.94776 5.8164,7.31835 8.7412,12.228 57.2963,57.69282 71.3672,66.82422 2.9632,1.923 4.661,4.43351 3.4883,5.15821 -0.4337,0.2681 -5.7261,1.44172 -11.7617,2.60742 -26.6686,5.1508 -77.8875,2.47007 -111.9727,-5.86133 -6.6,-1.6132 -17.4,-4.12684 -24,-5.58594 -13.3913,-2.9606 -24.6222,-6.44894 -25.7363,-7.99414 -0.4041,-0.5604 -0.74,-2.25703 -0.75,-3.76953 -0.014,-2.4766 -0.3644,-2.75 -3.5371,-2.75 -1.9376,0 -6.7751,-1.3238 -10.75,-2.94141 -3.975,-1.6175 -11.5016,-4.59634 -16.7266,-6.61914 -13.8047,-5.3445 -27.5174,-12.59937 -38.0566,-20.13867 -9.9542,-7.1209 -25.9434,-22.69939 -25.9434,-25.27539 0,-3.309 13.9896,-15.21905 33,-28.09375 10.725,-7.2635 21.975,-15.30946 25,-17.88086 3.025,-2.5715 8.3468,-6.89768 11.8281,-9.61328 21.6745,-16.90745 34.9023,-27.61639 45.6719,-36.97851 8.366,-7.27271 18.278,-14.77501 22.1992,-16.80274 1.5625,-0.80797 5.4082,-1.94517 8.5469,-2.52539 6.4976,-1.20115 8.339,-2.2356 18.7539,-10.54297 14.1893,-11.31794 23.2013,-19.99012 36.5684,-35.18555 23.3339,-26.52541 55.1881,-56.90234 59.668,-56.90234 z"
       style="fill:#2e8b57"
       id="path9" />
    <path
       d="m 1875.1543,424.36133 c 2.9789,0.0528 4.541,1.29188 12.8906,10.23828 20.7021,22.18192 47.6299,44.88627 67,56.49023 5.5965,3.35269 13.7099,12.29616 15.9668,17.59961 3.2029,7.52673 10.1881,15.52795 30.6543,35.11133 10.3463,9.9 28.9526,27.90473 41.3457,40.00977 22.1903,21.67449 33.6002,31.09569 55.0332,45.44336 5.225,3.4977 12.7856,9.21402 16.8028,12.70312 8.421,7.314 10.6133,7.76635 16.1972,3.34375 4.1612,-3.2957 6.7087,-3.60893 16.4141,-2.01953 3.253,0.5327 10.7905,1.04317 16.75,1.13477 5.9596,0.092 10.8359,0.5288 10.8359,0.9707 0,3.2467 -35.6833,34.74839 -55.6738,49.15039 -34.2952,24.7077 -77.06,47.7985 -114.8262,62 -4.4,1.6546 -10.25,3.88428 -13,4.95508 -5.8454,2.276 -22.1912,7.5744 -35,11.3457 -19.6441,5.7837 -56.4172,11.82883 -84.5,13.89063 -12.79,0.939 -54.5991,1.33839 -62,0.59179 -31.0845,-3.1359 -40.6286,-4.73558 -66.5,-11.14258 -47.2815,-11.7091 -91.7414,-31.54483 -123.25,-54.99023 -32.5041,-24.186 -50.0105,-43.10615 -66.1074,-71.43945 -6.395,-11.2562 -6.7245,-14.72641 -1.625,-17.15821 4.2373,-2.0206 7.5776,-1.11421 16.9121,4.58789 5.1682,3.1571 6.6518,3.59636 11.5352,3.41016 6.0332,-0.2301 16.4876,-3.72612 24.5351,-8.20312 3.068,-1.7069 7.2127,-3.00353 10.7266,-3.35743 7.1967,-0.7247 21.7119,-7.5165 30.875,-14.44531 7.5781,-5.73025 28.9706,-23.80047 42.9355,-36.26758 5.2454,-4.68287 15.9847,-13.91367 23.8672,-20.51367 7.8824,-6.6 17.3158,-14.62236 20.9629,-17.82812 8.5672,-7.53043 13.9766,-10.23654 28.5371,-14.27735 6.5476,-1.81709 12.2293,-3.66224 12.627,-4.09961 0.3978,-0.43738 2.2038,-3.49492 4.0136,-6.79492 8.2022,-14.95584 18.9668,-28.04613 31.9551,-38.86328 4.675,-3.89352 15.475,-13.86391 24,-22.15625 22.9624,-22.33571 32.5341,-29.5364 39.1094,-29.41992 z"
       style="fill:#2e8b57"
       id="path8" />
    <path
       d="m 2899.942,1378.1338 c -3.8639,-0.092 -9.4887,5.6163 -22.9825,23.3238 -5.0097,6.5741 -11.3563,14.4785 -14.1036,17.5653 -7.6326,8.5757 -13.9584,18.9535 -18.7784,30.8104 -1.0635,2.6162 -2.1248,5.0401 -2.3586,5.3869 -0.2337,0.3468 -3.5725,1.8095 -7.4202,3.2501 -8.5565,3.2035 -11.7353,5.3489 -16.7698,11.319 -2.1432,2.5414 -7.6867,8.9015 -12.3188,14.1339 -4.6321,5.2324 -10.9431,12.5505 -14.0255,16.263 -8.2065,9.8838 -20.7777,24.2097 -25.231,28.7525 -5.3847,5.4931 -13.9145,10.8776 -18.1436,11.4521 -2.065,0.2806 -4.5006,1.3086 -6.3035,2.6618 -4.7291,3.5493 -10.8726,6.3209 -14.418,6.5033 -2.8698,0.1477 -3.7416,-0.2006 -6.7787,-2.7035 -5.4854,-4.5206 -7.4483,-5.2392 -9.9383,-3.6373 -2.9968,1.9279 -2.8031,4.6791 0.9549,13.6029 9.4593,22.4623 19.7469,37.462 38.8479,56.6364 18.516,18.5873 44.6428,34.3128 72.4277,43.5957 15.2033,5.0794 20.8118,6.3476 39.0786,8.8337 4.3491,0.5919 28.9182,0.2753 36.4342,-0.4692 16.5028,-1.6345 38.1125,-6.427 49.6563,-11.0123 7.5271,-2.9898 17.1327,-7.1903 20.5677,-8.9947 1.616,-0.8489 5.0538,-2.6166 7.6394,-3.9284 22.1933,-11.2588 47.3239,-29.5649 67.4775,-49.1529 11.7474,-11.4178 32.7166,-36.392 32.7166,-38.9659 0,-0.3504 -2.8656,-0.6966 -6.3677,-0.7696 -3.5021,-0.073 -7.9315,-0.4773 -9.8431,-0.8996 -5.7034,-1.2601 -7.2004,-1.0117 -9.6457,1.6011 -3.2814,3.5062 -4.5697,3.1475 -9.5183,-2.6509 -2.3607,-2.7662 -6.8037,-7.298 -9.8741,-10.0709 -12.5951,-11.3747 -19.3001,-18.8438 -32.3402,-36.0271 -7.2828,-9.5967 -18.2168,-23.8706 -24.2968,-31.7192 -12.0269,-15.5255 -16.1317,-21.8688 -18.0139,-27.836 -1.3263,-4.2045 -6.0941,-11.2948 -9.3829,-13.9527 -11.3828,-9.1995 -27.2069,-27.1993 -39.3724,-44.7849 -4.9067,-7.0926 -5.8246,-8.0749 -7.5752,-8.1168 z m -0.513,30.4744 c 0.7743,0 1.3755,2.2667 6.0234,22.6766 2.0459,8.9837 4.39,18.1162 5.2085,20.2951 0.8381,2.2312 3.1378,6.0043 5.2659,8.6386 3.4217,4.2356 8.0445,11.9206 8.0445,13.3736 0,0.3183 0.9512,2.6592 2.1142,5.2012 2.9385,6.4227 4.6561,13.2604 5.7744,22.9831 2.1095,18.342 3.0735,21.8914 9.2577,34.0853 5.3526,10.554 8.5513,18.7671 9.0259,23.1783 0.3655,3.3968 0.2921,3.7658 -0.746,3.7658 -0.633,0 -1.6546,-0.7507 -2.2703,-1.6693 -0.6157,-0.9184 -2.0446,-2.3263 -3.1758,-3.1278 -2.1076,-1.4931 -6.0516,-5.7708 -17.5055,-18.9866 -3.5901,-4.1424 -9.2209,-10.2072 -12.5128,-13.4774 -8.6204,-8.5638 -14.1874,-16.9498 -16.5896,-24.993 -1.9394,-6.4939 -4.169,-11.4754 -5.1373,-11.4754 -1.5168,0 -2.4106,6.3826 -2.8831,20.6033 l -0.4867,14.6572 1.6665,2.5611 c 0.9168,1.4087 4.2607,5.7687 7.4306,9.6885 3.1698,3.9199 9.0386,11.8033 13.0419,17.5188 4.0033,5.7156 9.1599,12.4036 11.4591,14.8617 2.2993,2.4581 6.1646,6.8197 8.5886,9.6915 2.4241,2.8719 6.3907,7.3891 8.8147,10.0384 7.0985,7.7583 23.5815,29.6762 23.3798,31.0891 -0.2333,1.6342 -10.8012,8.7555 -13.0959,8.8245 -0.9696,0.029 -2.4241,0.5628 -3.2321,1.186 -0.808,0.6232 -2.4897,1.1455 -3.7359,1.1613 -1.2462,0.015 -3.7584,0.542 -5.5826,1.1707 -1.8243,0.6286 -5.8539,1.2483 -8.9548,1.3765 -6.9057,0.2855 -7.035,0.1884 -17.6031,-13.3133 -4.0559,-5.1819 -10.9314,-13.7468 -15.2788,-19.0332 -12.4271,-15.1106 -26.536,-33.4741 -30.381,-39.5418 -7.0097,-11.0617 -7.3986,-11.3834 -9.7238,-8.0549 -6.5185,9.3311 -10.697,15.9681 -10.697,16.9892 0,0.8363 1.7484,2.0563 5.4737,3.8215 3.0105,1.4265 5.8524,3.019 6.316,3.5381 0.4637,0.5191 2.0021,3.1298 3.418,5.802 5.1368,9.6942 33.6701,45.7382 41.9388,52.9775 1.7414,1.5245 2.7391,3.5148 2.0499,4.0894 -0.2548,0.2125 -3.3649,1.1429 -6.9117,2.0671 -15.6718,4.0835 -45.7705,1.9582 -65.8006,-4.6468 -3.8785,-1.2789 -10.2251,-3.2718 -14.1036,-4.4285 -7.8693,-2.3472 -14.4692,-5.1126 -15.1239,-6.3377 -0.2374,-0.4442 -0.4348,-1.7894 -0.4407,-2.9885 -0.01,-1.9634 -0.2141,-2.1801 -2.0786,-2.1801 -1.1386,0 -3.9813,-1.0495 -6.3172,-2.3319 -2.3359,-1.2824 -6.7589,-3.6439 -9.8294,-5.2476 -8.1123,-4.2371 -16.1705,-9.9887 -22.3639,-15.9657 -5.8495,-5.6453 -15.2456,-17.9958 -15.2456,-20.038 0,-2.6234 8.221,-12.0656 19.3924,-22.2725 6.3026,-5.7584 12.9136,-12.1371 14.6913,-14.1757 1.7776,-2.0387 4.9049,-5.4684 6.9507,-7.6213 12.737,-13.4041 20.5103,-21.894 26.839,-29.3162 4.9163,-5.7657 10.7411,-11.7134 13.0454,-13.3211 0.9182,-0.6404 3.1781,-1.542 5.0225,-2.0021 3.8183,-0.9522 4.9004,-1.7723 11.0207,-8.3583 8.3384,-8.9728 13.6343,-15.848 21.4894,-27.8947 13.7121,-21.0291 32.4312,-45.1116 35.0638,-45.1116 z"
       style="fill:#2e8b57;stroke-width:0.682555"
       id="path9-7" />
    <path
       id="path7"
       style="fill:#2e8b57"
       d="m 1700.3887,120.52734 c -90.7887,-0.30505 -83.6719,-0.89949 -84.8711,7.09766 -0.7364,4.91056 0.7429,14.22165 3.0215,19.02344 1.8797,3.96116 9.9471,12.31029 13.8457,14.32812 4.9353,2.55442 16.4133,4.45043 22.6562,3.74414 5.0112,-0.56697 6.0423,-0.37955 7.834,1.41211 1.1348,1.13481 2.5535,3.99873 3.1523,6.36524 2.3911,9.44946 7.8409,22.48327 19.7168,47.16015 6.8444,14.22197 17.9935,39.42197 24.7774,56 6.784,16.57803 16.9037,40.49258 22.4883,53.14258 22.8142,51.67727 29.1848,69.60502 32.8027,92.31445 3.5055,22.00381 1.8809,29.9111 -11.8203,57.50196 -7.5323,15.16837 -8.7071,18.1898 -7.8984,20.3164 0.5223,1.37387 0.9511,3.4802 0.9511,4.68164 0,1.20144 1.4625,5.6663 3.25,9.92188 1.7875,4.25557 3.4354,7.743 3.6621,7.75 1.0376,0.0329 10.0518,-5.74309 16.1914,-10.375 3.7269,-2.81166 8.3549,-6.23633 10.2852,-7.61133 4.1179,-2.93339 46.025,-45.75509 53.3359,-54.5 8.4465,-10.10312 32.5232,-32.23853 47.5743,-43.73828 6.2587,-4.78193 17.2703,-9.76172 21.5839,-9.76172 1.2864,0 5.1015,-1.4625 8.4785,-3.25 4.7926,-2.53681 13.1152,-10.05281 37.9239,-34.25 48.2977,-47.10723 48.6522,-47.41633 79.166,-68.71094 6.077,-4.24094 15.425,-10.70486 20.7715,-14.36328 11.6396,-7.96459 12.5013,-8.8494 10.7148,-11.00195 -1.0653,-1.28386 -1.0689,-1.72419 -0.019,-2.37305 3.0974,-1.9143 -5.0796,-12.23164 -22.7363,-28.68945 -16.0364,-14.94751 -23.1465,-20.56637 -33.0059,-26.08008 -12.5286,-7.0063 -1.5289,-6.51008 -142.3652,-6.42578 l -127.6895,0.0762 -2.541,-3.02148 c -1.3983,-1.66177 -4.1951,-6.03279 -6.2148,-9.71485 -2.0197,-3.68206 -5.1418,-9.17031 -6.9375,-12.19531 -1.7958,-3.025 -3.57,-6.71325 -3.9415,-8.19531 l -0.6738,-2.69336 29.8438,-0.30664 29.8457,-0.30469 6.7187,-3.81836 c 10.0046,-5.68612 14.7813,-12.28193 14.7813,-20.41211 0,-4.52108 -5.163,-12.82258 -10.2149,-16.42578 l -3.2851,-2.34375 z m 233.1562,127.63477 c 42.8841,0.60853 45.126,0.73271 47.7168,2.63867 1.4952,1.1 2.733,2.37271 2.75,2.82813 0.017,0.45543 -3.6793,4.83989 -8.2168,9.74218 -9.7009,10.4808 -107.2342,105.99805 -113.7734,111.42188 -2.4625,2.04247 -12.4613,11.54286 -22.2188,21.11133 -9.7575,9.56847 -17.918,17.39648 -18.1347,17.39648 -1.4754,0 -5.6696,-9.18883 -14.1504,-31 -11.9403,-30.70792 -16.5406,-42.00681 -23.0039,-56.5 -3.6792,-8.25 -9.599,-21.525 -13.1543,-29.5 -10.4338,-23.40476 -20.3145,-46.70212 -20.3145,-47.89453 0,-1.23399 103.0454,-1.37161 182.5,-0.24414 z" />
    <path
       d="m 1612.6484,237.30078 c -2.9285,0 -5.1062,1.30894 -12.8164,7.70703 -9.3828,7.78605 -33.7031,32.15681 -42.205,42.29297 -11.3284,13.5059 -35.1567,45.33478 -42.3477,56.56641 -20.1343,31.44759 -34.8053,63.20861 -47.5488,102.93359 -5.4689,17.0481 -12.7813,57.95563 -14.836,83 -6.1534,75.00335 7.8835,144.9983 43.1153,215 14.3223,28.4569 41.462,68.50187 60.705,89.57227 4.3061,4.7151 11.3736,12.50394 15.7051,17.30664 4.3316,4.8026 11.7019,11.96858 16.3789,15.92578 11.9429,10.105 38.1419,29.88497 48.2461,36.42578 4.675,3.0263 9.6304,6.28539 11.0137,7.24219 6.6369,4.5905 41.3832,23.69433 56.9863,31.33203 28.4579,13.9299 56.0949,23.97496 94,34.16406 27.3515,7.3522 68.5968,14.15197 96,15.82617 12.1692,0.7434 47.0793,0.57863 56,-0.26367 26.6205,-2.5134 40.0213,-4.48764 72.5,-10.68164 34.2708,-6.5357 77.7486,-19.59409 106,-31.83789 13.726,-5.9486 49.4139,-24.91901 61.8633,-32.88281 3.1205,-1.9962 5.9209,-3.62891 6.2227,-3.62891 0.3018,0 6.0303,-3.69885 12.7304,-8.21875 48.0885,-32.44112 84.4159,-65.84637 115.1875,-110.78125 30.7716,-44.93488 55.7893,-99.85335 64.4024,-154.03125 5.4041,-33.99391 6.5211,-48.02221 6.5351,-81.96875 0.011,-27.77499 -0.3187,-35.25236 -2.2793,-51.43555 -3.1519,-26.01687 -6.5372,-46.03831 -10.625,-62.85351 -3.2104,-13.20565 -4.4445,-17.2504 -10.5879,-34.71094 -3.418,-9.71441 -16.6673,-35.20882 -23.9062,-46 -26.9828,-40.22317 -56.3652,-64.69329 -96.043,-79.98242 -4.675,-1.80143 -9.625,-3.8461 -11,-4.54492 -6.6189,-3.36392 -28.3565,-8.8437 -43.4258,-10.94727 -14.7852,-2.0639 -50.2063,-2.0436 -66.1171,0.0391 -18.712,2.44933 -36.7977,7.55895 -49.7286,14.04688 -4.7778,2.39717 -30.6802,18.16718 -36.8027,22.40625 -1.4156,0.98011 -6.5906,4.49224 -11.5,7.80469 -39.9692,26.9677 -65.2089,69.66971 -75.4648,127.67773 -3.3452,18.92104 -1.7642,24.74686 9.4531,34.82617 4.0078,3.60115 11.2566,11.86394 16.1074,18.36133 4.8508,6.49739 10.5185,14.0625 12.5957,16.8125 4.5133,5.97532 16.8828,18.37008 16.8828,16.91797 0,-0.56288 -1.1322,-7.74947 -2.5156,-15.9707 -4.4482,-26.43617 -4.1575,-44.75082 1.1152,-70.27735 6.4166,-31.06494 26.099,-63.86668 51.6563,-86.08593 10.8678,-9.44833 31.2315,-22.92638 41.3144,-27.34571 34.0594,-14.92822 72.9857,-17.12592 110.9297,-6.26172 10.334,2.95884 33.7197,14.15414 44,21.06446 32.3917,21.7734 55.6585,53.57316 67.0508,91.63476 2.9326,9.79787 6.4473,33.59896 6.4473,43.66016 0,18.2821 -3.8891,40.75339 -10.502,60.66406 -3.1623,9.52141 -3.345,10.8854 -3.8144,28.5 -0.393,14.75156 -1.0049,20.83011 -3.0196,30 -7.8111,35.55426 -29.6475,79.8663 -54.8047,111.2168 -11.2939,14.0744 -21.6769,25.67657 -32.0898,35.85547 -5.1812,5.0648 -8.7676,9.38002 -8.7676,10.54882 0,2.49451 -1.8437,4.37891 -4.2832,4.37891 -1.0349,0 -6.2821,4.07233 -11.6621,9.04883 -16.7539,15.4973 -40.8412,33.58497 -70.0547,52.60547 -10.9429,7.1248 -60.0422,32.49924 -76,39.27734 -4.125,1.7521 -8.4,3.59711 -9.5,4.09961 -16.898,7.7194 -60.3218,21.21251 -86.5,26.87891 -25.5025,5.5201 -28.2626,6.06156 -41.5,8.13086 -18.7421,2.92981 -71.2129,4.67558 -93.6836,3.11718 -49.7257,-3.44881 -106.3691,-18.83825 -150.0019,-40.75195 -17.2837,-8.6804 -49.8128,-28.40521 -62.3145,-37.78711 -16.2758,-12.2141 -40.2191,-38.1401 -49.6386,-53.75 -1.4503,-2.4032 -5.6801,-9.31914 -9.4004,-15.36914 -19.5164,-31.7378 -46.1947,-96.7541 -52.3438,-127.5625 -7.9268,-39.71536 -6.5724,-74.13633 5.3887,-136.9375 10.0349,-52.68763 20.4272,-80.06261 43.8496,-115.5 24.3892,-36.90023 45.1506,-61.5593 70.1211,-83.28906 6.6126,-5.75437 12.5394,-11.1049 13.1719,-11.89063 0.6325,-0.78573 1.1504,-4.11134 1.1504,-7.39062 0,-6.40876 -0.6515,-7.65331 -13.3184,-25.4043 -5.2759,-7.39353 -6.8532,-8.52539 -11.877,-8.52539 z"
       style="fill:#2e8b57"
       id="path6" />
    <path
       d="m 2065.5449,119.02148 -65,0.45899 -6.2597,2.86133 c -11.7839,5.38853 -22.2402,17.88704 -20.6407,24.66992 1.0202,4.32573 4.5289,10.1437 7.1563,11.86523 2.3701,1.553 11.1918,2.7539 29.2441,3.98047 5.225,0.35501 33.3879,0.93802 62.586,1.29492 l 53.0879,0.64844 4.2265,2.92969 c 6.0963,4.22667 9.4866,10.43987 8.8379,16.19531 -0.5372,4.76585 -3.9667,9.96007 -9.1172,13.81055 -2.5235,1.88654 -4.5456,2.1076 -23.4414,2.56445 -19.8138,0.47905 -20.8581,0.60475 -24.9101,3 -10.3352,6.10952 -10.8408,21.39104 -1.0743,32.48633 6.1766,7.01697 10.4313,8.77933 22.8047,9.44726 30.0672,1.62305 44.4004,-2.07374 59.8477,-15.43359 15.7585,-13.62891 23.1091,-29.21573 23.1191,-49 0,-10.57297 -2.0918,-19.0546 -7.414,-30 -6.3726,-13.10591 -13.2622,-20.29511 -24.8848,-25.9707 -6.533,-3.19018 -11.1806,-4.73506 -16.168,-5.37305 -3.85,-0.49251 -36.25,-0.68807 -72,-0.43555 z"
       style="fill:#2e8b57"
       id="path4" />
    <circle
       style="fill:#ffffff;fill-opacity:0;stroke:#000000;stroke-opacity:1"
       id="path2-6"
       cx="1923.9897"
       cy="523.98981"
       r="531.48981" />
    <path
       id="path7-7"
       style="fill:#2e8b57"
       d="m 2415.1605,1112.3731 c -90.7887,-0.305 -83.6719,-0.8994 -84.8711,7.0977 -0.7364,4.9106 0.7429,14.2217 3.0215,19.0234 1.8797,3.9612 9.9471,12.3103 13.8457,14.3282 4.9353,2.5544 16.4133,4.4504 22.6562,3.7441 5.0112,-0.567 6.0423,-0.3795 7.834,1.4121 1.1348,1.1348 2.5535,3.9987 3.1523,6.3653 2.3911,9.4494 7.8409,22.4832 19.7168,47.1601 6.8444,14.222 17.9935,39.422 24.7774,56 6.784,16.578 16.9037,40.4926 22.4883,53.1426 22.8142,51.6773 29.1848,69.605 32.8027,92.3144 3.5055,22.0038 1.8809,29.9111 -11.8203,57.502 -7.5323,15.1684 -8.7071,18.1898 -7.8984,20.3164 0.5223,1.3739 0.9511,3.4802 0.9511,4.6816 0,1.2015 1.4625,5.6663 3.25,9.9219 1.7875,4.2556 3.4354,7.743 3.6621,7.75 1.0376,0.033 10.0518,-5.7431 16.1914,-10.375 3.7269,-2.8116 8.3549,-6.2363 10.2852,-7.6113 4.1179,-2.9334 46.025,-45.7551 53.3359,-54.5 8.4465,-10.1031 32.5232,-32.2385 47.5743,-43.7383 6.2587,-4.7819 17.2703,-9.7617 21.5839,-9.7617 1.2864,0 5.1015,-1.4625 8.4785,-3.25 4.7926,-2.5368 13.1152,-10.0528 37.9239,-34.25 48.2977,-47.1072 48.6522,-47.4163 79.166,-68.711 6.077,-4.2409 15.425,-10.7048 20.7715,-14.3632 11.6396,-7.9646 12.5013,-8.8494 10.7148,-11.002 -1.0653,-1.2838 -1.0689,-1.7242 -0.019,-2.373 3.0974,-1.9143 -5.0796,-12.2317 -22.7363,-28.6895 -16.0364,-14.9475 -23.1465,-20.5664 -33.0059,-26.0801 -12.5286,-7.0063 -1.5289,-6.51 -142.3652,-6.4257 l -127.6895,0.076 -2.541,-3.0215 c -1.3983,-1.6618 -4.1951,-6.0328 -6.2148,-9.7149 -2.0197,-3.682 -5.1418,-9.1703 -6.9375,-12.1953 -1.7958,-3.025 -3.57,-6.7132 -3.9415,-8.1953 l -0.6738,-2.6934 29.8438,-0.3066 29.8457,-0.3047 6.7187,-3.8183 c 10.0046,-5.6862 14.7813,-12.282 14.7813,-20.4122 0,-4.521 -5.163,-12.8225 -10.2149,-16.4257 l -3.2851,-2.3438 z m 233.1562,127.6348 c 42.8841,0.6085 45.126,0.7327 47.7168,2.6387 1.4952,1.1 2.733,2.3727 2.75,2.8281 0.017,0.4554 -3.6793,4.8399 -8.2168,9.7422 -9.7009,10.4808 -107.2342,105.998 -113.7734,111.4219 -2.4625,2.0424 -12.4613,11.5428 -22.2188,21.1113 -9.7575,9.5685 -17.918,17.3965 -18.1347,17.3965 -1.4754,0 -5.6696,-9.1888 -14.1504,-31 -11.9403,-30.7079 -16.5406,-42.0068 -23.0039,-56.5 -3.6792,-8.25 -9.599,-21.525 -13.1543,-29.5 -10.4338,-23.4048 -20.3145,-46.7021 -20.3145,-47.8945 0,-1.234 103.0454,-1.3717 182.5,-0.2442 z" />
    <path
       d="m 2780.3167,1110.8673 -65,0.459 -6.2597,2.8613 c -11.7839,5.3885 -22.2402,17.887 -20.6407,24.6699 1.0202,4.3258 4.5289,10.1437 7.1563,11.8653 2.3701,1.553 11.1918,2.7539 29.2441,3.9804 5.225,0.355 33.3879,0.938 62.586,1.2949 l 53.0879,0.6485 4.2265,2.9297 c 6.0963,4.2266 9.4866,10.4398 8.8379,16.1953 -0.5372,4.7658 -3.9667,9.96 -9.1172,13.8105 -2.5235,1.8866 -4.5456,2.1076 -23.4414,2.5645 -19.8138,0.479 -20.8581,0.6047 -24.9101,3 -10.3352,6.1095 -10.8408,21.391 -1.0743,32.4863 6.1766,7.017 10.4313,8.7793 22.8047,9.4473 30.0672,1.623 44.4004,-2.0738 59.8477,-15.4336 15.7585,-13.6289 23.1091,-29.2157 23.1191,-49 0,-10.573 -2.0918,-19.0546 -7.414,-30 -6.3726,-13.1059 -13.2622,-20.2951 -24.8848,-25.9707 -6.533,-3.1902 -11.1806,-4.7351 -16.168,-5.3731 -3.85,-0.4925 -36.25,-0.688 -72,-0.4355 z"
       style="fill:#2e8b57"
       id="path4-4" />
    <path
       d="m 2400.8671,2116.6631 -65,0.459 -6.2597,2.8613 c -11.7839,5.3885 -22.2402,17.887 -20.6407,24.6699 1.0202,4.3258 4.5289,10.1437 7.1563,11.8653 2.3701,1.553 11.1918,2.7539 29.2441,3.9804 5.225,0.355 33.3879,0.938 62.586,1.2949 l 53.0879,0.6485 4.2265,2.9297 c 6.0963,4.2266 9.4866,10.4398 8.8379,16.1953 -0.5372,4.7658 -3.9667,9.96 -9.1172,13.8105 -2.5235,1.8866 -4.5456,2.1076 -23.4414,2.5645 -19.8138,0.479 -20.8581,0.6047 -24.9101,3 -10.3352,6.1095 -10.8408,21.391 -1.0743,32.4863 6.1766,7.017 10.4313,8.7793 22.8047,9.4473 30.0672,1.623 44.4004,-2.0738 59.8477,-15.4336 15.7585,-13.6289 23.1091,-29.2157 23.1191,-49 0,-10.573 -2.0918,-19.0546 -7.414,-30 -6.3726,-13.1059 -13.2622,-20.2951 -24.8848,-25.9707 -6.533,-3.1902 -11.1806,-4.7351 -16.168,-5.3731 -3.85,-0.4925 -36.25,-0.688 -72,-0.4355 z"
       style="fill:#2e8b57"
       id="path4-4-3" />
    <path
       d="m 3386.6659,2608.1104 -65,0.459 -6.2597,2.8613 c -11.7839,5.3885 -22.2402,17.887 -20.6407,24.6699 1.0202,4.3258 4.5289,10.1437 7.1563,11.8653 2.3701,1.553 11.1918,2.7539 29.2441,3.9804 5.225,0.355 33.3879,0.938 62.586,1.2949 l 53.0879,0.6485 4.2265,2.9297 c 6.0963,4.2266 9.4866,10.4398 8.8379,16.1953 -0.5372,4.7658 -3.9667,9.96 -9.1172,13.8105 -2.5235,1.8866 -4.5456,2.1076 -23.4414,2.5645 -19.8138,0.479 -20.8581,0.6047 -24.9101,3 -10.3352,6.1095 -10.8408,21.391 -1.0743,32.4863 6.1766,7.017 10.4313,8.7793 22.8047,9.4473 30.0672,1.623 44.4004,-2.0738 59.8477,-15.4336 15.7585,-13.6289 23.1091,-29.2157 23.1191,-49 0,-10.573 -2.0918,-19.0546 -7.414,-30 -6.3726,-13.1059 -13.2622,-20.2951 -24.8848,-25.9707 -6.533,-3.1902 -11.1806,-4.7351 -16.168,-5.3731 -3.85,-0.4925 -36.25,-0.688 -72,-0.4355 z"
       style="fill:#2e8b57"
       id="path4-4-3-6" />
    <circle
       style="fill:#ffffff;fill-opacity:0;stroke:#000000;stroke-opacity:1"
       id="path2-6-1"
       cx="2638.7615"
       cy="1515.8354"
       r="531.48981" />
    <path
       id="path11"
       style="fill:#2e8b57;fill-opacity:1;stroke:none;stroke-width:1;stroke-opacity:1;font-variation-settings:normal;opacity:1;vector-effect:none;stroke-linecap:butt;stroke-linejoin:miter;stroke-miterlimit:4;stroke-dasharray:none;stroke-dashoffset:0;-inkscape-stroke:none;stop-color:#000000;stop-opacity:1"
       d="M 2881.7617 1254.3477 A 220.25098 216.50453 0 0 0 2661.5098 1470.8516 A 220.25098 216.50453 0 0 0 2881.7617 1687.3574 A 220.25098 216.50453 0 0 0 3102.0117 1470.8516 A 220.25098 216.50453 0 0 0 2881.7617 1254.3477 z M 2881.7617 1288.957 A 185.04225 181.8947 0 0 1 3066.8047 1470.8516 A 185.04225 181.8947 0 0 1 2881.7617 1652.7461 A 185.04225 181.8947 0 0 1 2696.7188 1470.8516 A 185.04225 181.8947 0 0 1 2881.7617 1288.957 z " />
    <path
       d="m 3846.8432,1362.3769 c -3.8639,-0.092 -9.4887,5.6163 -22.9825,23.3238 -5.0097,6.5741 -11.3563,14.4785 -14.1036,17.5653 -7.6326,8.5757 -13.9584,18.9535 -18.7784,30.8104 -1.0635,2.6162 -2.1248,5.0401 -2.3586,5.3869 -0.2337,0.3468 -3.5725,1.8095 -7.4202,3.2501 -8.5565,3.2035 -11.7353,5.3489 -16.7698,11.319 -2.1432,2.5414 -7.6867,8.9015 -12.3188,14.1339 -4.6321,5.2324 -10.9431,12.5505 -14.0255,16.263 -8.2065,9.8838 -20.7777,24.2097 -25.231,28.7525 -5.3847,5.4931 -13.9145,10.8776 -18.1436,11.4521 -2.065,0.2806 -4.5006,1.3086 -6.3035,2.6618 -4.7291,3.5493 -10.8726,6.3209 -14.418,6.5033 -2.8698,0.1477 -3.7416,-0.2006 -6.7787,-2.7035 -5.4854,-4.5206 -7.4483,-5.2392 -9.9383,-3.6373 -2.9968,1.9279 -2.8031,4.6791 0.9549,13.6029 9.4593,22.4623 19.7469,37.462 38.8479,56.6364 18.516,18.5873 44.6428,34.3128 72.4277,43.5957 15.2033,5.0794 20.8118,6.3476 39.0786,8.8337 4.3491,0.5919 28.9182,0.2753 36.4342,-0.4692 16.5028,-1.6345 38.1125,-6.427 49.6563,-11.0123 7.5271,-2.9898 17.1327,-7.1903 20.5677,-8.9947 1.616,-0.8489 5.0538,-2.6166 7.6394,-3.9284 22.1933,-11.2588 47.3239,-29.5649 67.4775,-49.1529 11.7474,-11.4178 32.7166,-36.392 32.7166,-38.9659 0,-0.3504 -2.8656,-0.6966 -6.3677,-0.7696 -3.5021,-0.073 -7.9315,-0.4773 -9.8431,-0.8996 -5.7034,-1.2601 -7.2004,-1.0117 -9.6457,1.6011 -3.2814,3.5062 -4.5697,3.1475 -9.5183,-2.6509 -2.3607,-2.7662 -6.8037,-7.298 -9.8741,-10.0709 -12.5951,-11.3747 -19.3001,-18.8438 -32.3402,-36.0271 -7.2828,-9.5967 -18.2168,-23.8706 -24.2968,-31.7192 -12.0269,-15.5255 -16.1317,-21.8688 -18.0139,-27.836 -1.3263,-4.2045 -6.0941,-11.2948 -9.3829,-13.9527 -11.3828,-9.1995 -27.2069,-27.1993 -39.3724,-44.7849 -4.9067,-7.0926 -5.8246,-8.0749 -7.5752,-8.1168 z m -0.513,30.4744 c 0.7743,0 1.3755,2.2667 6.0234,22.6766 2.0459,8.9837 4.39,18.1162 5.2085,20.2951 0.8381,2.2312 3.1378,6.0043 5.2659,8.6386 3.4217,4.2356 8.0445,11.9206 8.0445,13.3736 0,0.3183 0.9512,2.6592 2.1142,5.2012 2.9385,6.4227 4.6561,13.2604 5.7744,22.9831 2.1095,18.342 3.0735,21.8914 9.2577,34.0853 5.3526,10.554 8.5513,18.7671 9.0259,23.1783 0.3655,3.3968 0.2921,3.7658 -0.746,3.7658 -0.633,0 -1.6546,-0.7507 -2.2703,-1.6693 -0.6157,-0.9184 -2.0446,-2.3263 -3.1758,-3.1278 -2.1076,-1.4931 -6.0516,-5.7708 -17.5055,-18.9866 -3.5901,-4.1424 -9.2209,-10.2072 -12.5128,-13.4774 -8.6204,-8.5638 -14.1874,-16.9498 -16.5896,-24.993 -1.9394,-6.4939 -4.169,-11.4754 -5.1373,-11.4754 -1.5168,0 -2.4106,6.3826 -2.8831,20.6033 l -0.4867,14.6572 1.6665,2.5611 c 0.9168,1.4087 4.2607,5.7687 7.4306,9.6885 3.1698,3.9199 9.0386,11.8033 13.0419,17.5188 4.0033,5.7156 9.1599,12.4036 11.4591,14.8617 2.2993,2.4581 6.1646,6.8197 8.5886,9.6915 2.4241,2.8719 6.3907,7.3891 8.8147,10.0384 7.0985,7.7583 23.5815,29.6762 23.3798,31.0891 -0.2333,1.6342 -10.8012,8.7555 -13.0959,8.8245 -0.9696,0.029 -2.4241,0.5628 -3.2321,1.186 -0.808,0.6232 -2.4897,1.1455 -3.7359,1.1613 -1.2462,0.015 -3.7584,0.542 -5.5826,1.1707 -1.8243,0.6286 -5.8539,1.2483 -8.9548,1.3765 -6.9057,0.2855 -7.035,0.1884 -17.6031,-13.3133 -4.0559,-5.1819 -10.9314,-13.7468 -15.2788,-19.0332 -12.4271,-15.1106 -26.536,-33.4741 -30.381,-39.5418 -7.0097,-11.0617 -7.3986,-11.3834 -9.7238,-8.0549 -6.5185,9.3311 -10.697,15.9681 -10.697,16.9892 0,0.8363 1.7484,2.0563 5.4737,3.8215 3.0105,1.4265 5.8524,3.019 6.316,3.5381 0.4637,0.5191 2.0021,3.1298 3.418,5.802 5.1368,9.6942 33.6701,45.7382 41.9388,52.9775 1.7414,1.5245 2.7391,3.5148 2.0499,4.0894 -0.2548,0.2125 -3.3649,1.1429 -6.9117,2.0671 -15.6718,4.0835 -45.7705,1.9582 -65.8006,-4.6468 -3.8785,-1.2789 -10.2251,-3.2718 -14.1036,-4.4285 -7.8693,-2.3472 -14.4692,-5.1126 -15.1239,-6.3377 -0.2374,-0.4442 -0.4348,-1.7894 -0.4407,-2.9885 -0.01,-1.9634 -0.2141,-2.1801 -2.0786,-2.1801 -1.1386,0 -3.9813,-1.0495 -6.3172,-2.3319 -2.3359,-1.2824 -6.7589,-3.6439 -9.8294,-5.2476 -8.1123,-4.2371 -16.1705,-9.9887 -22.3639,-15.9657 -5.8495,-5.6453 -15.2456,-17.9958 -15.2456,-20.038 0,-2.6234 8.221,-12.0656 19.3924,-22.2725 6.3026,-5.7584 12.9136,-12.1371 14.6913,-14.1757 1.7776,-2.0387 4.9049,-5.4684 6.9507,-7.6213 12.737,-13.4041 20.5103,-21.894 26.839,-29.3162 4.9163,-5.7657 10.7411,-11.7134 13.0454,-13.3211 0.9182,-0.6404 3.1781,-1.542 5.0225,-2.0021 3.8183,-0.9522 4.9004,-1.7723 11.0207,-8.3583 8.3384,-8.9728 13.6343,-15.848 21.4894,-27.8947 13.7121,-21.0291 32.4312,-45.1116 35.0638,-45.1116 z"
       style="fill:#2e8b57;stroke-width:0.682555"
       id="path9-7-8" />
    <path
       id="path7-7-4"
       style="fill:#2e8b57"
       d="m 3422.0617,1070.6162 c -90.7887,-0.305 -83.6719,-0.8994 -84.8711,7.0977 -0.7364,4.9106 0.7429,14.2217 3.0215,19.0234 1.8797,3.9612 9.9471,12.3103 13.8457,14.3282 4.9353,2.5544 16.4133,4.4504 22.6562,3.7441 5.0112,-0.567 6.0423,-0.3795 7.834,1.4121 1.1348,1.1348 2.5535,3.9987 3.1523,6.3653 2.3911,9.4494 7.8409,22.4832 19.7168,47.1601 6.8444,14.222 17.9935,39.422 24.7774,56 6.784,16.578 16.9037,40.4926 22.4883,53.1426 22.8142,51.6773 29.1848,69.605 32.8027,92.3144 3.5055,22.0038 1.8809,29.9111 -11.8203,57.502 -7.5323,15.1684 -8.7071,18.1898 -7.8984,20.3164 0.5223,1.3739 0.9511,3.4802 0.9511,4.6816 0,1.2015 1.4625,5.6663 3.25,9.9219 1.7875,4.2556 3.4354,7.743 3.6621,7.75 1.0376,0.033 10.0518,-5.7431 16.1914,-10.375 3.7269,-2.8116 8.3549,-6.2363 10.2852,-7.6113 4.1179,-2.9334 46.025,-45.7551 53.3359,-54.5 8.4465,-10.1031 32.5232,-32.2385 47.5743,-43.7383 6.2587,-4.7819 8.5716,-10.6316 12.8852,-10.6316 1.2864,0 7.7111,-8.4214 11.0881,-10.2089 4.7926,-2.5368 10.5997,-10.8286 35.4084,-35.0258 48.2977,-47.1072 57.2568,-38.8117 87.7706,-60.1064 6.077,-4.2409 15.425,-10.7048 20.7715,-14.3632 11.6396,-7.9646 12.5013,-8.8494 10.7148,-11.002 -1.0653,-1.2838 -1.0689,-1.7242 -0.019,-2.373 3.0974,-1.9143 -5.0796,-12.2317 -22.7363,-28.6895 -16.0364,-14.9475 -23.1465,-20.5664 -33.0059,-26.0801 -12.5286,-7.0063 -1.5289,-6.51 -142.3652,-6.4257 l -127.6895,0.076 -2.541,-3.0215 c -1.3983,-1.6618 -4.1951,-6.0328 -6.2148,-9.7149 -2.0197,-3.682 -5.1418,-9.1703 -6.9375,-12.1953 -1.7958,-3.025 -3.57,-6.7132 -3.9415,-8.1953 l -0.6738,-2.6934 29.8438,-0.3066 29.8457,-0.3047 6.7187,-3.8183 c 10.0046,-5.6862 14.7813,-12.282 14.7813,-20.4122 0,-4.521 -5.163,-12.8225 -10.2149,-16.4257 l -3.2851,-2.3438 z m 233.1562,127.6348 c 42.8841,0.6085 45.126,0.7327 47.7168,2.6387 1.4952,1.1 2.733,2.3727 2.75,2.8281 0.017,0.4554 -3.6793,4.8399 -8.2168,9.7422 -9.7009,10.4808 -107.2342,105.998 -113.7734,111.4219 -2.4625,2.0424 -12.4613,11.5428 -22.2188,21.1113 -9.7575,9.5685 -17.918,17.3965 -18.1347,17.3965 -1.4754,0 -5.6696,-9.1888 -14.1504,-31 -11.9403,-30.7079 -16.5406,-42.0068 -23.0039,-56.5 -3.6792,-8.25 -9.599,-21.525 -13.1543,-29.5 -10.4338,-23.4048 -20.3145,-46.7021 -20.3145,-47.8945 0,-1.234 103.0454,-1.3717 182.5,-0.2442 z"
       sodipodi:nodetypes="ssssssssssssssscssssssssssssssccssccccssscsssssssssssss" />
    <path
       d="m 3787.2179,1093.1104 -65,0.459 -6.2597,2.8613 c -11.7839,5.3885 -22.2402,17.887 -20.6407,24.6699 1.0202,4.3258 4.5289,10.1437 7.1563,11.8653 2.3701,1.553 11.1918,2.7539 29.2441,3.9804 5.225,0.355 33.3879,0.938 62.586,1.2949 l 53.0879,0.6485 4.2265,2.9297 c 6.0963,4.2266 9.4866,10.4398 8.8379,16.1953 -0.5372,4.7658 -3.9667,9.96 -9.1172,13.8105 -2.5235,1.8866 -4.5456,2.1076 -23.4414,2.5645 -19.8138,0.479 -20.8581,0.6047 -24.9101,3 -10.3352,6.1095 -10.8408,21.391 -1.0743,32.4863 6.1766,7.017 10.4313,8.7793 22.8047,9.4473 30.0672,1.623 44.4004,-2.0738 59.8477,-15.4336 15.7585,-13.6289 23.1091,-29.2157 23.1191,-49 0,-10.573 -2.0919,-19.0546 -7.414,-30 -1.7081,-3.5128 -5.2876,-10.6018 -7.251,-18.5513 -0.7917,-3.2053 3.2072,-15.909 3.1078,-20.5522 -0.097,-4.5285 -0.7975,-11.1139 -1.4674,-12.1596 -3.2953,-5.1441 -13.6384,22.4662 -20.2076,21.1173 -6.6631,-1.3682 -10.1171,-1.2107 -15.2346,-1.198 -3.8814,0.01 -36.25,-0.688 -72,-0.4355 z"
       style="fill:#2e8b57"
       id="path4-4-0"
       sodipodi:nodetypes="sccsssscsssssssscsssssss" />
    <path
       id="path11-0"
       style="font-variation-settings:normal;vector-effect:none;fill:#2e8b57;fill-opacity:1;stroke:none;stroke-width:1;stroke-linecap:butt;stroke-linejoin:miter;stroke-miterlimit:4;stroke-dasharray:none;stroke-dashoffset:0;stroke-opacity:1;-inkscape-stroke:none;stop-color:#000000"
       d="m 3828.6629,1238.5908 a 220.25098,216.50453 0 0 0 -220.2519,216.5039 220.25098,216.50453 0 0 0 220.2519,216.5058 220.25098,216.50453 0 0 0 220.25,-216.5058 220.25098,216.50453 0 0 0 -220.25,-216.5039 z m 0,34.6093 a 185.04225,181.8947 0 0 1 185.043,181.8946 185.04225,181.8947 0 0 1 -185.043,181.8945 185.04225,181.8947 0 0 1 -185.0429,-181.8945 185.04225,181.8947 0 0 1 185.0429,-181.8946 z" />
    <path
       d="m 3443.8952,2841.1909 c -3.8639,-0.1049 -9.4887,6.4044 -22.9825,26.5969 -5.0097,7.4967 -11.3563,16.5103 -14.1036,20.0303 -7.6326,9.7792 -13.9584,21.6133 -18.7784,35.1341 -1.0635,2.9834 -2.1248,5.7474 -2.3586,6.1429 -0.2337,0.3955 -3.5725,2.0634 -7.4202,3.7062 -8.5565,3.653 -11.7353,6.0995 -16.7698,12.9074 -2.1432,2.8981 -7.6867,10.1507 -12.3188,16.1174 -4.6321,5.9667 -10.9431,14.3117 -14.0255,18.5452 -8.2065,11.2708 -20.7777,27.6071 -25.231,32.7875 -5.3847,6.2639 -13.9145,12.404 -18.1436,13.0592 -2.065,0.3199 -4.5006,1.4922 -6.3035,3.0353 -4.7291,4.0474 -10.8726,7.2079 -14.418,7.4159 -2.8698,0.1685 -3.7416,-0.2287 -6.7787,-3.0829 -5.4854,-5.155 -7.4483,-5.9744 -9.9383,-4.1477 -2.9968,2.1985 -2.8031,5.3357 0.9549,15.5118 9.4593,25.6146 19.7469,42.7192 38.8479,64.5844 18.516,21.1957 44.6428,39.1281 72.4277,49.7137 15.2033,5.7922 20.8118,7.2383 39.0786,10.0733 4.3491,0.675 28.9182,0.3139 36.4342,-0.535 16.5028,-1.8639 38.1125,-7.329 49.6563,-12.5577 7.5271,-3.4094 17.1327,-8.1994 20.5677,-10.257 1.616,-0.968 5.0538,-2.9838 7.6394,-4.4797 22.1933,-12.8388 47.3239,-33.7138 67.4775,-56.0507 11.7474,-13.0201 32.7166,-41.499 32.7166,-44.4341 0,-0.3995 -2.8656,-0.7943 -6.3677,-0.8776 -3.5021,-0.083 -7.9315,-0.5443 -9.8431,-1.0258 -5.7034,-1.4369 -7.2004,-1.1537 -9.6457,1.8258 -3.2814,3.9982 -4.5697,3.5892 -9.5183,-3.0229 -2.3607,-3.1544 -6.8037,-8.3222 -9.8741,-11.4842 -12.5951,-12.971 -19.3001,-21.4882 -32.3402,-41.0829 -7.2828,-10.9435 -18.2168,-27.2205 -24.2968,-36.1705 -12.0269,-17.7042 -16.1317,-24.9377 -18.0139,-31.7423 -1.3263,-4.7945 -6.0941,-12.8798 -9.3829,-15.9107 -11.3828,-10.4905 -27.2069,-31.0163 -39.3724,-51.0697 -4.9067,-8.088 -5.8246,-9.2081 -7.5752,-9.2559 z m -0.513,34.751 c 0.7743,0 1.3755,2.5848 6.0234,25.8589 2.0459,10.2444 4.39,20.6585 5.2085,23.1431 0.8381,2.5443 3.1378,6.8469 5.2659,9.8509 3.4217,4.83 8.0445,13.5935 8.0445,15.2504 0,0.3629 0.9512,3.0324 2.1142,5.9311 2.9385,7.324 4.6561,15.1213 5.7744,26.2084 2.1095,20.916 3.0735,24.9635 9.2577,38.8686 5.3526,12.0351 8.5513,21.4007 9.0259,26.431 0.3655,3.8735 0.2921,4.2942 -0.746,4.2942 -0.633,0 -1.6546,-0.856 -2.2703,-1.9035 -0.6157,-1.0473 -2.0446,-2.6528 -3.1758,-3.5668 -2.1076,-1.7026 -6.0516,-6.5806 -17.5055,-21.651 -3.5901,-4.7237 -9.2209,-11.6396 -12.5128,-15.3687 -8.6204,-9.7656 -14.1874,-19.3285 -16.5896,-28.5004 -1.9394,-7.4052 -4.169,-13.0858 -5.1373,-13.0858 -1.5168,0 -2.4106,7.2783 -2.8831,23.4947 l -0.4867,16.714 1.6665,2.9206 c 0.9168,1.6063 4.2607,6.5782 7.4306,11.0481 3.1698,4.47 9.0386,13.4597 13.0419,19.9772 4.0033,6.5177 9.1599,14.1443 11.4591,16.9473 2.2993,2.8031 6.1646,7.7768 8.5886,11.0516 2.4241,3.2749 6.3907,8.426 8.8147,11.4471 7.0985,8.8471 23.5815,33.8408 23.3798,35.4519 -0.2333,1.8636 -10.8012,9.9842 -13.0959,10.0629 -0.9696,0.033 -2.4241,0.6418 -3.2321,1.3524 -0.808,0.7107 -2.4897,1.3063 -3.7359,1.3243 -1.2462,0.017 -3.7584,0.6181 -5.5826,1.335 -1.8243,0.7168 -5.8539,1.4235 -8.9548,1.5697 -6.9057,0.3255 -7.035,0.2148 -17.6031,-15.1816 -4.0559,-5.9091 -10.9314,-15.676 -15.2788,-21.7042 -12.4271,-17.2311 -26.536,-38.1717 -30.381,-45.0909 -7.0097,-12.614 -7.3986,-12.9808 -9.7238,-9.1852 -6.5185,10.6405 -10.697,18.2089 -10.697,19.3733 0,0.9537 1.7484,2.3449 5.4737,4.3578 3.0105,1.6267 5.8524,3.4427 6.316,4.0346 0.4637,0.592 2.0021,3.569 3.418,6.6162 5.1368,11.0547 33.6701,52.1568 41.9388,60.4121 1.7414,1.7384 2.7391,4.008 2.0499,4.6632 -0.2548,0.2424 -3.3649,1.3033 -6.9117,2.3572 -15.6718,4.6566 -45.7705,2.233 -65.8006,-5.2989 -3.8785,-1.4584 -10.2251,-3.7309 -14.1036,-5.05 -7.8693,-2.6765 -14.4692,-5.83 -15.1239,-7.227 -0.2374,-0.5066 -0.4348,-2.0406 -0.4407,-3.4079 -0.01,-2.239 -0.2141,-2.4861 -2.0786,-2.4861 -1.1386,0 -3.9813,-1.1968 -6.3172,-2.6591 -2.3359,-1.4624 -6.7589,-4.1553 -9.8294,-5.984 -8.1123,-4.8317 -16.1705,-11.3905 -22.3639,-18.2062 -5.8495,-6.4376 -15.2456,-20.5213 -15.2456,-22.85 0,-2.9916 8.221,-13.7589 19.3924,-25.3981 6.3026,-6.5665 12.9136,-13.8404 14.6913,-16.165 1.7776,-2.3248 4.9049,-6.2358 6.9507,-8.6909 12.737,-15.2851 20.5103,-24.9664 26.839,-33.4302 4.9163,-6.5748 10.7411,-13.3572 13.0454,-15.1905 0.9182,-0.7303 3.1781,-1.7584 5.0225,-2.2831 3.8183,-1.0858 4.9004,-2.021 11.0207,-9.5312 8.3384,-10.232 13.6343,-18.072 21.4894,-31.8093 13.7121,-23.9802 32.4312,-51.4422 35.0638,-51.4422 z"
       style="fill:#2e8b57;stroke-width:0.728876"
       id="path9-7-8-0" />
    <path
       id="path11-0-0"
       style="font-variation-settings:normal;vector-effect:none;fill:#2e8b57;fill-opacity:1;stroke:none;stroke-width:1;stroke-linecap:butt;stroke-linejoin:miter;stroke-miterlimit:4;stroke-dasharray:none;stroke-dashoffset:0;stroke-opacity:1;-inkscape-stroke:none;stop-color:#000000"
       d="m 3423.8686,2757.829 c -121.6414,-5e-4 -220.2515,96.9316 -220.2519,216.5039 -7e-4,119.573 98.6098,216.5063 220.2519,216.5058 121.6414,-5e-4 220.2507,-96.9335 220.25,-216.5058 -4e-4,-119.5715 -98.6094,-216.5034 -220.25,-216.5039 z m 0,54.6093 c 102.1963,-4e-4 165.0429,61.4367 165.043,161.8946 -10e-5,100.4579 -62.8468,161.8949 -165.043,161.8945 -102.1962,4e-4 -165.0428,-61.4367 -165.0429,-161.8945 1e-4,-100.4579 62.8467,-161.895 165.0429,-161.8946 z"
       sodipodi:nodetypes="ssssssssss" />
    <path
       d="m 3630.8432,2171.9095 c -3.8639,-0.092 -9.4887,5.6163 -22.9825,23.3238 -5.0097,6.5741 -11.3563,14.4785 -14.1036,17.5653 -7.6326,8.5757 -13.9584,18.9535 -18.7784,30.8104 -1.0635,2.6162 -2.1248,5.0401 -2.3586,5.3869 -0.2337,0.3468 -3.5725,1.8095 -7.4202,3.2501 -8.5565,3.2035 -11.7353,5.3489 -16.7698,11.319 -2.1432,2.5414 -7.6867,8.9015 -12.3188,14.1339 -4.6321,5.2324 -10.9431,12.5505 -14.0255,16.263 -8.2065,9.8838 -20.7777,24.2097 -25.231,28.7525 -5.3847,5.4931 -13.9145,10.8776 -18.1436,11.4521 -2.065,0.2806 -4.5006,1.3086 -6.3035,2.6618 -4.7291,3.5493 -10.8726,6.3209 -14.418,6.5033 -2.8698,0.1477 -3.7416,-0.2006 -6.7787,-2.7035 -5.4854,-4.5206 -7.4483,-5.2392 -9.9383,-3.6373 -2.9968,1.9279 -2.8031,4.6791 0.9549,13.6029 9.4593,22.4623 19.7469,37.462 38.8479,56.6364 18.516,18.5873 44.6428,34.3128 72.4277,43.5957 15.2033,5.0794 20.8118,6.3476 39.0786,8.8337 4.3491,0.5919 28.9182,0.2753 36.4342,-0.4692 16.5028,-1.6345 38.1125,-6.427 49.6563,-11.0123 7.5271,-2.9898 17.1327,-7.1903 20.5677,-8.9947 1.616,-0.8489 5.0538,-2.6166 7.6394,-3.9284 22.1933,-11.2588 47.3239,-29.5649 67.4775,-49.1529 11.7474,-11.4178 32.7166,-36.392 32.7166,-38.9659 0,-0.3504 -2.8656,-0.6966 -6.3677,-0.7696 -3.5021,-0.073 -7.9315,-0.4773 -9.8431,-0.8996 -5.7034,-1.2601 -7.2004,-1.0117 -9.6457,1.6011 -3.2814,3.5062 -4.5697,3.1475 -9.5183,-2.6509 -2.3607,-2.7662 -6.8037,-7.298 -9.8741,-10.0709 -12.5951,-11.3747 -19.3001,-18.8438 -32.3402,-36.0271 -7.2828,-9.5967 -18.2168,-23.8706 -24.2968,-31.7192 -12.0269,-15.5255 -16.1317,-21.8688 -18.0139,-27.836 -1.3263,-4.2045 -6.0941,-11.2948 -9.3829,-13.9527 -11.3828,-9.1995 -27.2069,-27.1993 -39.3724,-44.7849 -4.9067,-7.0926 -5.8246,-8.0749 -7.5752,-8.1168 z m -0.513,30.4744 c 0.7743,0 1.3755,2.2667 6.0234,22.6766 2.0459,8.9837 4.39,18.1162 5.2085,20.2951 0.8381,2.2312 3.1378,6.0043 5.2659,8.6386 3.4217,4.2356 8.0445,11.9206 8.0445,13.3736 0,0.3183 0.9512,2.6592 2.1142,5.2012 2.9385,6.4227 4.6561,13.2604 5.7744,22.9831 2.1095,18.342 3.0735,21.8914 9.2577,34.0853 5.3526,10.554 8.5513,18.7671 9.0259,23.1783 0.3655,3.3968 0.2921,3.7658 -0.746,3.7658 -0.633,0 -1.6546,-0.7507 -2.2703,-1.6693 -0.6157,-0.9184 -2.0446,-2.3263 -3.1758,-3.1278 -2.1076,-1.4931 -6.0516,-5.7708 -17.5055,-18.9866 -3.5901,-4.1424 -9.2209,-10.2072 -12.5128,-13.4774 -8.6204,-8.5638 -14.1874,-16.9498 -16.5896,-24.993 -1.9394,-6.4939 -4.169,-11.4754 -5.1373,-11.4754 -1.5168,0 -2.4106,6.3826 -2.8831,20.6033 l -0.4867,14.6572 1.6665,2.5611 c 0.9168,1.4087 4.2607,5.7687 7.4306,9.6885 3.1698,3.9199 9.0386,11.8033 13.0419,17.5188 4.0033,5.7156 9.1599,12.4036 11.4591,14.8617 2.2993,2.4581 6.1646,6.8197 8.5886,9.6915 2.4241,2.8719 6.3907,7.3891 8.8147,10.0384 7.0985,7.7583 23.5815,29.6762 23.3798,31.0891 -0.2333,1.6342 -10.8012,8.7555 -13.0959,8.8245 -0.9696,0.029 -2.4241,0.5628 -3.2321,1.186 -0.808,0.6232 -2.4897,1.1455 -3.7359,1.1613 -1.2462,0.015 -3.7584,0.542 -5.5826,1.1707 -1.8243,0.6286 -5.8539,1.2483 -8.9548,1.3765 -6.9057,0.2855 -7.035,0.1884 -17.6031,-13.3133 -4.0559,-5.1819 -10.9314,-13.7468 -15.2788,-19.0332 -12.4271,-15.1106 -26.536,-33.4741 -30.381,-39.5418 -7.0097,-11.0617 -7.3986,-11.3834 -9.7238,-8.0549 -6.5185,9.3311 -10.697,15.9681 -10.697,16.9892 0,0.8363 1.7484,2.0563 5.4737,3.8215 3.0105,1.4265 5.8524,3.019 6.316,3.5381 0.4637,0.5191 2.0021,3.1298 3.418,5.802 5.1368,9.6942 33.6701,45.7382 41.9388,52.9775 1.7414,1.5245 2.7391,3.5148 2.0499,4.0894 -0.2548,0.2125 -3.3649,1.1429 -6.9117,2.0671 -15.6718,4.0835 -45.7705,1.9582 -65.8006,-4.6468 -3.8785,-1.2789 -10.2251,-3.2718 -14.1036,-4.4285 -7.8693,-2.3472 -14.4692,-5.1126 -15.1239,-6.3377 -0.2374,-0.4442 -0.4348,-1.7894 -0.4407,-2.9885 -0.01,-1.9634 -0.2141,-2.1801 -2.0786,-2.1801 -1.1386,0 -3.9813,-1.0495 -6.3172,-2.3319 -2.3359,-1.2824 -6.7589,-3.6439 -9.8294,-5.2476 -8.1123,-4.2371 -16.1705,-9.9887 -22.3639,-15.9657 -5.8495,-5.6453 -15.2456,-17.9958 -15.2456,-20.038 0,-2.6234 8.221,-12.0656 19.3924,-22.2725 6.3026,-5.7584 12.9136,-12.1371 14.6913,-14.1757 1.7776,-2.0387 4.9049,-5.4684 6.9507,-7.6213 12.737,-13.4041 20.5103,-21.894 26.839,-29.3162 4.9163,-5.7657 10.7411,-11.7134 13.0454,-13.3211 0.9182,-0.6404 3.1781,-1.542 5.0225,-2.0021 3.8183,-0.9522 4.9004,-1.7723 11.0207,-8.3583 8.3384,-8.9728 13.6343,-15.848 21.4894,-27.8947 13.7121,-21.0291 32.4312,-45.1116 35.0638,-45.1116 z"
       style="fill:#2e8b57;stroke-width:0.682555"
       id="path9-7-8-1" />
    <path
       id="path7-7-4-8"
       style="fill:#2e8b57"
       d="M 3375.9043 1959.7715 L 3375.9043 2007.1641 C 3397.1425 2007.2898 3418.9486 2007.4956 3439.2188 2007.7832 C 3482.1029 2008.3917 3484.3447 2008.5159 3486.9355 2010.4219 C 3488.4307 2011.5219 3489.6685 2012.7946 3489.6855 2013.25 C 3489.7025 2013.7054 3486.0063 2018.0899 3481.4688 2022.9922 C 3473.1933 2031.9329 3401.0011 2102.7565 3375.9043 2126.7441 L 3375.9043 2173.6875 C 3379.8742 2170.3263 3383.6695 2167.2417 3387.0176 2164.6836 C 3393.2763 2159.9017 3395.5887 2154.0527 3399.9023 2154.0527 C 3401.1887 2154.0527 3407.6132 2145.6313 3410.9902 2143.8438 C 3415.7828 2141.307 3421.5897 2133.0156 3446.3984 2108.8184 C 3494.6961 2061.7112 3503.6561 2070.0056 3534.1699 2048.7109 C 3540.2469 2044.47 3549.5949 2038.0061 3554.9414 2034.3477 C 3566.581 2026.3831 3567.4427 2025.4983 3565.6562 2023.3457 C 3564.5909 2022.0619 3564.5868 2021.6215 3565.6367 2020.9727 C 3568.7341 2019.0584 3560.5571 2008.741 3542.9004 1992.2832 C 3526.864 1977.3357 3519.7539 1971.7168 3509.8945 1966.2031 C 3497.6198 1959.3388 3507.9294 1959.6757 3375.9043 1959.7715 z " />
    <path
       d="m 3571.2179,1902.643 -65,0.459 -6.2597,2.8613 c -11.7839,5.3885 -22.2402,17.887 -20.6407,24.6699 1.0202,4.3258 4.5289,10.1437 7.1563,11.8653 2.3701,1.553 11.1918,2.7539 29.2441,3.9804 5.225,0.355 33.3879,0.938 62.586,1.2949 l 53.0879,0.6485 4.2265,2.9297 c 6.0963,4.2266 9.4866,10.4398 8.8379,16.1953 -0.5372,4.7658 -3.9667,9.96 -9.1172,13.8105 -2.5235,1.8866 -4.5456,2.1076 -23.4414,2.5645 -19.8138,0.479 -20.8581,0.6047 -24.9101,3 -10.3352,6.1095 -10.8408,21.391 -1.0743,32.4863 6.1766,7.017 10.4313,8.7793 22.8047,9.4473 30.0672,1.623 44.4004,-2.0738 59.8477,-15.4336 15.7585,-13.6289 23.1091,-29.2157 23.1191,-49 0,-10.573 -2.0919,-19.0546 -7.414,-30 -1.7081,-3.5128 -5.2876,-10.6018 -7.251,-18.5513 -0.7917,-3.2053 3.2072,-15.909 3.1078,-20.5522 -0.097,-4.5285 -0.7975,-11.1139 -1.4674,-12.1596 -3.2953,-5.1441 -13.6384,22.4662 -20.2076,21.1173 -6.6631,-1.3682 -10.1171,-1.2107 -15.2346,-1.198 -3.8814,0.01 -36.25,-0.688 -72,-0.4355 z"
       style="fill:#2e8b57"
       id="path4-4-0-4"
       sodipodi:nodetypes="sccsssscsssssssscsssssss" />
    <path
       id="path11-0-9"
       style="font-variation-settings:normal;vector-effect:none;fill:#2e8b57;fill-opacity:1;stroke:none;stroke-width:1;stroke-linecap:butt;stroke-linejoin:miter;stroke-miterlimit:4;stroke-dasharray:none;stroke-dashoffset:0;stroke-opacity:1;-inkscape-stroke:none;stop-color:#000000"
       d="m 3612.6629,2048.1234 a 220.25098,216.50453 0 0 0 -220.2519,216.5039 220.25098,216.50453 0 0 0 220.2519,216.5058 220.25098,216.50453 0 0 0 220.25,-216.5058 220.25098,216.50453 0 0 0 -220.25,-216.5039 z m 0,34.6093 a 185.04225,181.8947 0 0 1 185.043,181.8946 185.04225,181.8947 0 0 1 -185.043,181.8945 185.04225,181.8947 0 0 1 -185.0429,-181.8945 185.04225,181.8947 0 0 1 185.0429,-181.8946 z" />
    <path
       d="m 2458.1561,2386.6808 c -3.8639,-0.092 -9.4887,5.6163 -22.9825,23.3238 -5.0097,6.5741 -11.3563,14.4785 -14.1036,17.5653 -7.6326,8.5757 -13.9584,18.9535 -18.7784,30.8104 -1.0635,2.6162 -2.1248,5.0401 -2.3586,5.3869 -0.2337,0.3468 -3.5725,1.8095 -7.4202,3.2501 -8.5565,3.2035 -11.7353,5.3489 -16.7698,11.319 -2.1432,2.5414 -7.6867,8.9015 -12.3188,14.1339 -4.6321,5.2324 -10.9431,12.5505 -14.0255,16.263 -8.2065,9.8838 -20.7777,24.2097 -25.231,28.7525 -5.3847,5.4931 -13.9145,10.8776 -18.1436,11.4521 -2.065,0.2806 -4.5006,1.3086 -6.3035,2.6618 -4.7291,3.5493 -10.8726,6.3209 -14.418,6.5033 -2.8698,0.1477 -3.7416,-0.2006 -6.7787,-2.7035 -5.4854,-4.5206 -7.4483,-5.2392 -9.9383,-3.6373 -2.9968,1.9279 -2.8031,4.6791 0.9549,13.6029 9.4593,22.4623 19.7469,37.462 38.8479,56.6364 18.516,18.5873 44.6428,34.3128 72.4277,43.5957 15.2033,5.0794 20.8118,6.3476 39.0786,8.8337 4.3491,0.5919 28.9182,0.2753 36.4342,-0.4692 16.5028,-1.6345 38.1125,-6.427 49.6563,-11.0123 7.5271,-2.9898 17.1327,-7.1903 20.5677,-8.9947 1.616,-0.8489 5.0538,-2.6166 7.6394,-3.9284 22.1933,-11.2588 47.3239,-29.5649 67.4775,-49.1529 11.7474,-11.4178 32.7166,-36.392 32.7166,-38.9659 0,-0.3504 -2.8656,-0.6966 -6.3677,-0.7696 -3.5021,-0.073 -7.9315,-0.4773 -9.8431,-0.8996 -5.7034,-1.2601 -7.2004,-1.0117 -9.6457,1.6011 -3.2814,3.5062 -4.5697,3.1475 -9.5183,-2.6509 -2.3607,-2.7662 -6.8037,-7.298 -9.8741,-10.0709 -12.5951,-11.3747 -19.3001,-18.8438 -32.3402,-36.0271 -7.2828,-9.5967 -18.2168,-23.8706 -24.2968,-31.7192 -12.0269,-15.5255 -16.1317,-21.8688 -18.0139,-27.836 -1.3263,-4.2045 -6.0941,-11.2948 -9.3829,-13.9527 -11.3828,-9.1995 -27.2069,-27.1993 -39.3724,-44.7849 -4.9067,-7.0926 -5.8246,-8.0749 -7.5752,-8.1168 z m -0.513,30.4744 c 0.7743,0 1.3755,2.2667 6.0234,22.6766 2.0459,8.9837 4.39,18.1162 5.2085,20.2951 0.8381,2.2312 3.1378,6.0043 5.2659,8.6386 3.4217,4.2356 8.0445,11.9206 8.0445,13.3736 0,0.3183 0.9512,2.6592 2.1142,5.2012 2.9385,6.4227 4.6561,13.2604 5.7744,22.9831 2.1095,18.342 3.0735,21.8914 9.2577,34.0853 5.3526,10.554 8.5513,18.7671 9.0259,23.1783 0.3655,3.3968 0.2921,3.7658 -0.746,3.7658 -0.633,0 -1.6546,-0.7507 -2.2703,-1.6693 -0.6157,-0.9184 -2.0446,-2.3263 -3.1758,-3.1278 -2.1076,-1.4931 -6.0516,-5.7708 -17.5055,-18.9866 -3.5901,-4.1424 -9.2209,-10.2072 -12.5128,-13.4774 -8.6204,-8.5638 -14.1874,-16.9498 -16.5896,-24.993 -1.9394,-6.4939 -4.169,-11.4754 -5.1373,-11.4754 -1.5168,0 -2.4106,6.3826 -2.8831,20.6033 l -0.4867,14.6572 1.6665,2.5611 c 0.9168,1.4087 4.2607,5.7687 7.4306,9.6885 3.1698,3.9199 9.0386,11.8033 13.0419,17.5188 4.0033,5.7156 9.1599,12.4036 11.4591,14.8617 2.2993,2.4581 6.1646,6.8197 8.5886,9.6915 2.4241,2.8719 6.3907,7.3891 8.8147,10.0384 7.0985,7.7583 23.5815,29.6762 23.3798,31.0891 -0.2333,1.6342 -10.8012,8.7555 -13.0959,8.8245 -0.9696,0.029 -2.4241,0.5628 -3.2321,1.186 -0.808,0.6232 -2.4897,1.1455 -3.7359,1.1613 -1.2462,0.015 -3.7584,0.542 -5.5826,1.1707 -1.8243,0.6286 -5.8539,1.2483 -8.9548,1.3765 -6.9057,0.2855 -7.035,0.1884 -17.6031,-13.3133 -4.0559,-5.1819 -10.9314,-13.7468 -15.2788,-19.0332 -12.4271,-15.1106 -26.536,-33.4741 -30.381,-39.5418 -7.0097,-11.0617 -7.3986,-11.3834 -9.7238,-8.0549 -6.5185,9.3311 -10.697,15.9681 -10.697,16.9892 0,0.8363 1.7484,2.0563 5.4737,3.8215 3.0105,1.4265 5.8524,3.019 6.316,3.5381 0.4637,0.5191 2.0021,3.1298 3.418,5.802 5.1368,9.6942 33.6701,45.7382 41.9388,52.9775 1.7414,1.5245 2.7391,3.5148 2.0499,4.0894 -0.2548,0.2125 -3.3649,1.1429 -6.9117,2.0671 -15.6718,4.0835 -45.7705,1.9582 -65.8006,-4.6468 -3.8785,-1.2789 -10.2251,-3.2718 -14.1036,-4.4285 -7.8693,-2.3472 -14.4692,-5.1126 -15.1239,-6.3377 -0.2374,-0.4442 -0.4348,-1.7894 -0.4407,-2.9885 -0.01,-1.9634 -0.2141,-2.1801 -2.0786,-2.1801 -1.1386,0 -3.9813,-1.0495 -6.3172,-2.3319 -2.3359,-1.2824 -6.7589,-3.6439 -9.8294,-5.2476 -8.1123,-4.2371 -16.1705,-9.9887 -22.3639,-15.9657 -5.8495,-5.6453 -15.2456,-17.9958 -15.2456,-20.038 0,-2.6234 8.221,-12.0656 19.3924,-22.2725 6.3026,-5.7584 12.9136,-12.1371 14.6913,-14.1757 1.7776,-2.0387 4.9049,-5.4684 6.9507,-7.6213 12.737,-13.4041 20.5103,-21.894 26.839,-29.3162 4.9163,-5.7657 10.7411,-11.7134 13.0454,-13.3211 0.9182,-0.6404 3.1781,-1.542 5.0225,-2.0021 3.8183,-0.9522 4.9004,-1.7723 11.0207,-8.3583 8.3384,-8.9728 13.6343,-15.848 21.4894,-27.8947 13.7121,-21.0291 32.4312,-45.1116 35.0638,-45.1116 z"
       style="fill:#2e8b57;stroke-width:0.682555"
       id="path9-7-8-1-0" />
    <path
       id="path7-7-4-8-1"
       style="fill:#2e8b57"
       d="m 2203.2172,2174.5428 v 47.3926 c 21.2382,0.1257 43.0443,0.3315 63.3145,0.6191 42.8841,0.6085 45.1259,0.7327 47.7167,2.6387 1.4952,1.1 2.733,2.3727 2.75,2.8281 0.017,0.4554 -3.6792,4.8399 -8.2167,9.7422 -8.2755,8.9407 -80.4677,79.7643 -105.5645,103.7519 v 46.9434 c 3.9699,-3.3612 7.7652,-6.4458 11.1133,-9.0039 6.2587,-4.7819 8.5711,-10.6309 12.8847,-10.6309 1.2864,0 7.7109,-8.4214 11.0879,-10.2089 4.7926,-2.5368 10.5995,-10.8282 35.4082,-35.0254 48.2977,-47.1072 57.2577,-38.8128 87.7715,-60.1075 6.077,-4.2409 15.425,-10.7048 20.7715,-14.3632 11.6396,-7.9646 12.5013,-8.8494 10.7148,-11.002 -1.0653,-1.2838 -1.0694,-1.7242 -0.019,-2.373 3.0974,-1.9143 -5.0796,-12.2317 -22.7363,-28.6895 -16.0364,-14.9475 -23.1465,-20.5664 -33.0059,-26.0801 -12.2747,-6.8643 -1.9651,-6.5274 -133.9902,-6.4316 z" />
    <path
       id="path11-0-9-3"
       style="font-variation-settings:normal;vector-effect:none;fill:#2e8b57;fill-opacity:1;stroke:none;stroke-width:1;stroke-linecap:butt;stroke-linejoin:miter;stroke-miterlimit:4;stroke-dasharray:none;stroke-dashoffset:0;stroke-opacity:1;-inkscape-stroke:none;stop-color:#000000"
       d="m 2439.9758,2262.8947 a 220.25098,216.50453 0 0 0 -220.2519,216.5039 220.25098,216.50453 0 0 0 220.2519,216.5058 220.25098,216.50453 0 0 0 220.25,-216.5058 220.25098,216.50453 0 0 0 -220.25,-216.5039 z m 0,34.6093 a 185.04225,181.8947 0 0 1 185.043,181.8946 185.04225,181.8947 0 0 1 -185.043,181.8945 185.04225,181.8947 0 0 1 -185.0429,-181.8945 185.04225,181.8947 0 0 1 185.0429,-181.8946 z" />
    <path
       style="font-variation-settings:normal;opacity:1;fill:none;fill-opacity:1;stroke:#2e8b57;stroke-width:30;stroke-linecap:butt;stroke-linejoin:miter;stroke-miterlimit:4;stroke-dasharray:none;stroke-dashoffset:0;stroke-opacity:1"
       d="m 4497.8466,1998.4796 c -6.9561,121.9214 -2.4758,295.915 0,442.2826 0.7909,46.7594 44.7881,67.1822 123.1673,67.1822 78.3792,0 141.4948,-150.5856 181.9517,-226.7399 47.5874,-89.5762 166.6902,-262.9273 -53.1859,-347.1078 -220.7269,-84.5063 -248.2623,0.044 -251.9331,64.3829 z"
       id="path12"
       sodipodi:nodetypes="ssssss" />
    <rect
       style="font-variation-settings:normal;opacity:1;fill:#2e8b57;fill-opacity:1;stroke:none;stroke-width:30;stroke-linecap:butt;stroke-linejoin:miter;stroke-miterlimit:4;stroke-dasharray:none;stroke-dashoffset:0;stroke-opacity:1"
       id="rect12"
       width="302.52585"
       height="38.471493"
       x="4335.0376"
       y="1675.2587" />
  </g>
</svg>
