<svg xmlns="http://www.w3.org/2000/svg" style="display:none;">
  <symbol id="search" viewBox="0 0 24 24"><path d="M18.031 16.6168L22.3137 20.8995L20.8995 22.3137L16.6168 18.031C15.0769 19.263 13.124 20 11 20C6.032 20 2 15.968 2 11C2 6.032 6.032 2 11 2C15.968 2 20 6.032 20 11C20 13.124 19.263 15.0769 18.031 16.6168ZM16.0247 15.8748C17.2475 14.6146 18 12.8956 18 11C18 7.1325 14.8675 4 11 4C7.1325 4 4 7.1325 4 11C4 14.8675 7.1325 18 11 18C12.8956 18 14.6146 17.2475 15.8748 16.0247L16.0247 15.8748Z"/></symbol>
  <symbol id="filter" viewBox="0 0 24 24"><path d="M21 4V6H20L15 13.5V22H9V13.5L4 6H3V4H21ZM6.4037 6L11 12.8944V20H13V12.8944L17.5963 6H6.4037Z"/></symbol>
  <symbol id="close" viewBox="0 0 24 24"><path d="M12.0007 10.5865L16.9504 5.63672L18.3646 7.05093L13.4149 12.0007L18.3646 16.9504L16.9504 18.3646L12.0007 13.4149L7.05093 18.3646L5.63672 16.9504L10.5865 12.0007L5.63672 7.05093L7.05093 5.63672L12.0007 10.5865Z"/></symbol>
  <symbol id="mail" viewBox="0 0 24 24"><path d="M3 3H21C21.5523 3 22 3.44772 22 4V20C22 20.5523 21.5523 21 21 21H3C2.44772 21 2 20.5523 2 20V4C2 3.44772 2.44772 3 3 3ZM20 7.23792L12.0718 14.338L4 7.21594V19H20V7.23792ZM4.51146 5L12.0619 11.662L19.501 5H4.51146Z"/></symbol>
  <symbol id="mail-fill" viewBox="0 0 24 24"><path d="M3 3H21C21.5523 3 22 3.44772 22 4V20C22 20.5523 21.5523 21 21 21H3C2.44772 21 2 20.5523 2 20V4C2 3.44772 2.44772 3 3 3ZM12.0606 11.6829L5.64722 6.2377L4.35278 7.7623L12.0731 14.3171L19.6544 7.75616L18.3456 6.24384L12.0606 11.6829Z"/></symbol>
  <symbol id="phone" viewBox="0 0 24 24"><path d="M9.36556 10.6821C10.302 12.3288 11.6712 13.698 13.3179 14.6344L14.2024 13.3961C14.4965 12.9845 15.0516 12.8573 15.4956 13.0998C16.9024 13.8683 18.4571 14.3353 20.0789 14.4637C20.5906 14.5049 21 14.9389 21 15.4526V19.9864C21 20.5077 20.5761 20.9456 20.0549 20.9948C19.5765 21.0389 19.0924 21.0608 18.6033 21.0608C9.88543 21.0608 2.93921 14.1146 2.93921 5.39669C2.93921 4.90765 2.96113 4.42351 3.00526 3.94507C3.05445 3.42389 3.49231 3 4.01356 3H8.54737C9.06109 3 9.49505 3.40938 9.53625 3.92104C9.66471 5.54289 10.1317 7.09757 10.9002 8.50445C11.1427 8.94844 11.0155 9.50349 10.6039 9.79761L9.36556 10.6821Z"/></symbol>
  <symbol id="user" viewBox="0 0 24 24"><path d="M4 22C4 17.5817 7.58172 14 12 14C16.4183 14 20 17.5817 20 22H18C18 18.6863 15.3137 16 12 16C8.68629 16 6 18.6863 6 22H4ZM12 13C8.685 13 6 10.315 6 7C6 3.685 8.685 1 12 1C15.315 1 18 3.685 18 7C18 10.315 15.315 13 12 13ZM12 11C14.21 11 16 9.21 16 7C16 4.79 14.21 3 12 3C9.79 3 8 4.79 8 7C8 9.21 9.79 11 12 11Z"/></symbol>
  <symbol id="pencil" viewBox="0 0 24 24"><path d="M15.7279 9.57627L14.3137 8.16206L5 17.4758V18.89H6.41421L15.7279 9.57627ZM17.1421 8.16206L18.5563 6.74785L17.1421 5.33363L15.7279 6.74785L17.1421 8.16206ZM7.24264 20.89H3V16.6473L16.435 3.21231C16.8256 2.82179 17.4587 2.82179 17.8492 3.21231L20.6777 6.04074C21.0682 6.43126 21.0682 7.06443 20.6777 7.45495L7.24264 20.89Z"/></symbol>
  <symbol id="external-link" viewBox="0 0 24 24"><path d="M10 6V8H5V19H16V14H18V20C18 20.5523 17.5523 21 17 21H4C3.44772 21 3 20.5523 3 20V7C3 6.44772 3.44772 6 4 6H10ZM21 3V11H19V6.413L11.2071 14.2071L9.79289 12.7929L17.585 5H13V3H21Z"/></symbol>
  <symbol id="checkbox-circle-fill" viewBox="0 0 24 24"><path d="M12 22C6.47715 22 2 17.5228 2 12C2 6.47715 6.47715 2 12 2C17.5228 2 22 6.47715 22 12C22 17.5228 17.5228 22 12 22ZM11.0026 16L18.0737 8.92893L16.6595 7.51472L11.0026 13.1716L8.17421 10.3431L6.75999 11.7574L11.0026 16Z"/></symbol>
  <symbol id="error-warning-fill" viewBox="0 0 24 24"><path d="M12 22C6.47715 22 2 17.5228 2 12C2 6.47715 6.47715 2 12 2C17.5228 2 22 6.47715 22 12C22 17.5228 17.5228 22 12 22ZM11 15V17H13V15H11ZM11 7V13H13V7H11Z"/></symbol>
  <symbol id="information" viewBox="0 0 24 24"><path d="M12 22C6.47715 22 2 17.5228 2 12C2 6.47715 6.47715 2 12 2C17.5228 2 22 6.47715 22 12C22 17.5228 17.5228 22 12 22ZM12 20C16.4183 20 20 16.4183 20 12C20 7.58172 16.4183 4 12 4C7.58172 4 4 7.58172 4 12C4 16.4183 7.58172 20 12 20ZM11 7H13V9H11V7ZM11 11H13V17H11V11Z"/></symbol>
  <symbol id="save" viewBox="0 0 24 24"><path d="M7 19V13H17V19H19V7.82843L16.1716 5H5V19H7ZM4 3H17L21 7V20C21 20.5523 20.5523 21 20 21H4C3.44772 21 3 20.5523 3 20V4C3 3.44772 3.44772 3 4 3ZM9 15V19H15V15H9Z"/></symbol>
  <symbol id="file-upload" viewBox="0 0 24 24"><path d="M15 4H5V20H19V8H15V4ZM3 2.9918C3 2.44405 3.44749 2 3.9985 2H16L20.9997 7L21 20.9925C21 21.5489 20.5551 22 20.0066 22H3.9934C3.44476 22 3 21.5447 3 21.0082V2.9918ZM13 12V16H11V12H8L12 8L16 12H13Z"/></symbol>
  <symbol id="chat" viewBox="0 0 24 24"><path d="M5.76282 17H20V5H4V18.3851L5.76282 17ZM6.45455 19L2 22.5V4C2 3.44772 2.44772 3 3 3H21C21.5523 3 22 3.44772 22 4V18C22 18.5523 21.5523 19 21 19H6.45455Z"/></symbol>
  <symbol id="building" viewBox="0 0 24 24"><path d="M21 20H23V22H1V20H3V3C3 2.44772 3.44772 2 4 2H20C20.5523 2 21 2.44772 21 3V20ZM19 20V4H5V20H19ZM8 11H11V13H8V11ZM8 7H11V9H8V7ZM8 15H11V17H8V15ZM13 15H16V17H13V15ZM13 11H16V13H13V11ZM13 7H16V9H13V7Z"/></symbol>
  <symbol id="ticket" viewBox="0 0 24 24"><path d="M21.0049 2.99979C21.5572 2.99979 22.0049 3.4475 22.0049 3.99979V9.49979C20.6242 9.49979 19.5049 10.6191 19.5049 11.9998C19.5049 13.3805 20.6242 14.4998 22.0049 14.4998V19.9998C22.0049 20.5521 21.5572 20.9998 21.0049 20.9998H3.00488C2.4526 20.9998 2.00488 20.5521 2.00488 19.9998V14.4998C3.38559 14.4998 4.50488 13.3805 4.50488 11.9998C4.50488 10.6191 3.38559 9.49979 2.00488 9.49979V3.99979C2.00488 3.4475 2.4526 2.99979 3.00488 2.99979H21.0049ZM20.0049 4.99979H4.00488V7.96779L4.16077 8.04886C5.49935 8.78084 6.42516 10.1733 6.49998 11.7832L6.50488 11.9998C6.50488 13.704 5.55755 15.1869 4.16077 15.9507L4.00488 16.0318V18.9998H20.0049V16.0318C18.5662 15.3151 17.5605 13.8476 17.5055 12.1466L17.5049 11.9998C17.5049 10.2956 18.4522 8.81269 19.849 8.04886L20.0049 7.96779V4.99979Z"/></symbol>
  <symbol id="sun-foggy" viewBox="0 0 24 24"><path d="M8 12C8 9.79086 9.79086 8 12 8C14.2091 8 16 9.79086 16 12H14C14 10.8954 13.1046 10 12 10C10.8954 10 10 10.8954 10 12H8ZM12 2C12.5523 2 13 2.44772 13 3V4C13 4.55228 12.5523 5 12 5C11.4477 5 11 4.55228 11 4V3C11 2.44772 11.4477 2 12 2ZM12 19C12.5523 19 13 19.4477 13 20V21C13 21.5523 12.5523 22 12 22C11.4477 22 11 21.5523 11 21V20C11 19.4477 11.4477 19 12 19ZM3 11H4C4.55228 11 5 11.4477 5 12C5 12.5523 4.55228 13 4 13H3C2.44772 13 2 12.5523 2 12C2 11.4477 2.44772 11 3 11ZM20 11H21C21.5523 11 22 11.4477 22 12C22 12.5523 21.5523 13 21 13H20C19.4477 13 19 12.5523 19 12C19 11.4477 19.4477 11 20 11ZM17.6569 4.92893L18.364 5.63604C18.7545 6.02656 18.7545 6.65973 18.364 7.05025C17.9735 7.44078 17.3403 7.44078 16.9498 7.05025L16.2427 6.34315C15.8521 5.95262 15.8521 5.31946 16.2427 4.92893C16.6332 4.53841 17.2663 4.53841 17.6569 4.92893ZM5.63604 16.9497L6.34315 17.6568C6.73367 18.0473 6.73367 18.6805 6.34315 19.071C5.95262 19.4615 5.31946 19.4615 4.92893 19.071L4.22183 18.3639C3.8313 17.9734 3.8313 17.3402 4.22183 16.9497C4.61235 16.5592 5.24552 16.5592 5.63604 16.9497ZM4.92893 4.92893C5.31946 4.53841 5.95262 4.53841 6.34315 4.92893L7.05025 5.63604C7.44078 6.02656 7.44078 6.65973 7.05025 7.05025C6.65973 7.44078 6.02656 7.44078 5.63604 7.05025L4.92893 6.34315C4.53841 5.95262 4.53841 5.31946 4.92893 4.92893ZM16.9498 16.9497C17.3403 16.5592 17.9735 16.5592 18.364 16.9497L19.0711 17.6568C19.4616 18.0473 19.4616 18.6805 19.0711 19.071C18.6806 19.4615 18.0474 19.4615 17.6569 19.071L16.9498 18.3639C16.5592 17.9734 16.5592 17.3402 16.9498 16.9497ZM2 14H6C6.55228 14 7 14.4477 7 15C7 15.5523 6.55228 16 6 16H2C1.44772 16 1 15.5523 1 15C1 14.4477 1.44772 14 2 14ZM10 14H14C14.5523 14 15 14.4477 15 15C15 15.5523 14.5523 16 14 16H10C9.44772 16 9 15.5523 9 15C9 14.4477 9.44772 14 10 14ZM18 14H22C22.5523 14 23 14.4477 23 15C23 15.5523 22.5523 16 22 16H18C17.4477 16 17 15.5523 17 15C17 14.4477 17.4477 14 18 14ZM4 17H10C10.5523 17 11 17.4477 11 18C11 18.5523 10.5523 19 10 19H4C3.44772 19 3 18.5523 3 18C3 17.4477 3.44772 17 4 17ZM14 17H20C20.5523 17 21 17.4477 21 18C21 18.5523 20.5523 19 20 19H14C13.4477 19 13 18.5523 13 18C13 17.4477 13.4477 17 14 17Z"/></symbol>
  <symbol id="sun-cloudy" viewBox="0 0 24 24"><path d="M9.98399 4.57898C11.0597 2.99813 12.8808 2 14.9093 2C18.1483 2 20.7743 4.62595 20.7743 7.86494C20.7743 8.00901 20.7695 8.15202 20.7601 8.29386C22.0855 8.8499 23.0363 10.1411 23.0363 11.6493C23.0363 13.6541 21.4107 15.2797 19.4059 15.2797L19.0224 15.2745C18.7064 15.256 18.3971 15.2072 18.0977 15.1312L17.8135 15.0576C17.1413 16.7896 15.4548 18 13.4864 18C12.5644 18 11.7031 17.7274 10.9866 17.2559C10.2701 17.7274 9.4088 18 8.48678 18C5.66431 18 3.37649 15.7122 3.37649 12.8897C3.37649 12.4105 3.43749 11.9456 3.55194 11.5027C2.62138 10.8187 2 9.71276 2 8.46745C2 6.46265 3.62559 4.83705 5.63039 4.83705C5.8205 4.83705 6.00707 4.85227 6.1889 4.88161C7.06294 4.31062 8.1159 3.96929 9.24892 3.96929C9.49971 3.96929 9.74547 3.98752 9.98399 4.57898ZM5.63039 6.83705C6.89813 6.83705 8.12544 7.32066 9.04893 8.18372L9.31033 8.43444L9.99 7.36682C10.5125 6.53498 11.2536 5.8624 12.1329 5.43002L12.4534 5.28019C11.9934 5.08165 11.4881 4.96929 10.9093 4.96929C10.1762 4.96929 9.48816 5.16191 8.89531 5.50003C9.00972 5.92227 9.07078 6.36672 9.07078 6.82508C9.07078 7.00076 9.06114 7.17417 9.04234 7.34498L8.99555 7.67125L8.62892 7.57128C8.47173 7.52628 8.30793 7.49664 8.13891 7.48418L7.96382 7.47717L7.79171 7.47009C7.61477 7.46097 7.43596 7.45631 7.25536 7.45631C6.82172 7.45631 6.39927 7.50171 5.99349 7.5881L5.66665 7.66257L5.64185 7.32301C5.63454 7.16118 5.63039 6.99887 5.63039 6.83705ZM9.63039 6.82508C9.63039 5.47908 9.29105 4.21203 8.69551 3.10355C8.88287 3.1012 9.06698 3.11043 9.24892 3.13064L9.66992 3.20049L9.86882 3.8225C10.0632 4.49636 10.143 5.1983 10.0986 5.9077L10.0671 6.31419C9.78948 6.26741 9.67003 6.23595 9.47068 6.21768L9.63039 6.82508ZM6.57078 6.82508C6.57078 7.0027 6.56433 7.17882 6.55162 7.35323C5.27SEF 7.58965 4.16961 8.2748 3.43749 9.26247L3.28705 9.48122C3.1453 8.83088 3.07078 8.15545 3.07078 7.46163C3.07078 4.71429 4.88395 2.38697 7.37649 1.56507L7.65266 1.48284L7.76498 1.78319C8.27568 3.20313 8.5651 4.73165 8.59873 6.32285L8.60131 6.74508L8.10523 6.77233C7.58887 6.78968 7.07652 6.78879 6.57078 6.82508ZM7.07078 8.82508C7.07078 8.41286 7.11418 8.01118 7.19661 7.62377C6.45118 7.55053 5.78261 7.34181 5.20161 7.02212C4.53461 7.29339 3.96549 7.75099 3.56187 8.33068C4.00836 8.78737 4.5971 9.1035 5.26071 9.20738L5.56491 9.24193L5.72127 9.51252C5.89273 9.82178 6.12016 10.0949 6.38831 10.3166L6.65605 10.5155L6.65018 10.8496C6.59377 11.5284 6.77448 12.1901 7.13753 12.7413C7.52167 13.3221 8.09849 13.7592 8.77303 13.9661L9.1079 14.0579L9.15102 14.4024C9.23413 15.1144 9.6209 15.7396 10.179 16.1451C10.1031 15.7446 10.0628 15.3302 10.0628 14.9055C10.0628 11.7665 12.0898 9.07741 15.0046 8.02869L15.3977 7.9048L15.5696 8.29014C15.7698 8.75031 15.9086 9.23912 15.9792 9.74811L16.0066 10.017L15.7394 10.0748C14.2418 10.4226 13.0628 11.6992 13.0628 14.9055C13.0628 16.0107 13.2929 17.0579 13.7026 18H8.48678C6.21273 18 4.37649 16.1638 4.37649 13.8897C4.37649 11.7497 6.00269 9.99659 8.09122 9.80753L8.48678 9.77945L8.67652 9.41389C9.01312 8.7545 9.50626 8.1814 10.1144 7.7497L10.4554 7.53248L10.1619 7.24891C9.37481 6.46977 8.33361 5.9773 7.18769 5.88265L6.82508 5.86203V6.22508C6.82508 7.17014 6.90748 8.06998 7.07078 8.82508Z"/></symbol>
  <symbol id="riding" viewBox="0 0 24 24"><path d="M5.5 21C3.01472 21 1 18.9853 1 16.5C1 14.0147 3.01472 12 5.5 12C7.98528 12 10 14.0147 10 16.5C10 18.9853 7.98528 21 5.5 21ZM5.5 19C6.88071 19 8 17.8807 8 16.5C8 15.1193 6.88071 14 5.5 14C4.11929 14 3 15.1193 3 16.5C3 17.8807 4.11929 19 5.5 19ZM18.5 21C16.0147 21 14 18.9853 14 16.5C14 14.0147 16.0147 12 18.5 12C20.9853 12 23 14.0147 23 16.5C23 18.9853 20.9853 21 18.5 21ZM18.5 19C19.8807 19 21 17.8807 21 16.5C21 15.1193 19.8807 14 18.5 14C17.1193 14 16 15.1193 16 16.5C16 17.8807 17.1193 19 18.5 19ZM10 6H16L18.5 9.5H22V11.5H17.5L15.6429 8.85714L13 17H10.5714L7.35542 9.30832L6 11H2V9H7L9.06458 6.69168L10 6ZM15.5 6C14.6716 6 14 5.32843 14 4.5C14 3.67157 14.6716 3 15.5 3C16.3284 3 17 3.67157 17 4.5C17 5.32843 16.3284 6 15.5 6Z"/></symbol>
  <symbol id="footprint" viewBox="0 0 24 24"><path d="M4 17.9974C4.49861 18 5.00278 18.0247 5.5 18.0738V21.0003H10.5V18.3359C11.3312 18.1156 12.1682 17.8301 13 17.4796V21.0003H18V16.4698C20.0133 14.5283 21.5 11.9008 21.5 9.00028C21.5 4.02972 17.4706 0 12.5 0C7.52944 0 3.5 4.02972 3.5 9.00028C3.5 12.2862 3.5 15.4696 4 17.9974ZM7.5 8.49972C6.39543 8.49972 5.5 7.60429 5.5 6.49972C5.5 5.39515 6.39543 4.49972 7.5 4.49972C8.60457 4.49972 9.5 5.39515 9.5 6.49972C9.5 7.60429 8.60457 8.49972 7.5 8.49972ZM17.5 8.49972C16.3954 8.49972 15.5 7.60429 15.5 6.49972C15.5 5.39515 16.3954 4.49972 17.5 4.49972C18.6046 4.49972 19.5 5.39515 19.5 6.49972C19.5 7.60429 18.6046 8.49972 17.5 8.49972Z"/></symbol>
  <symbol id="login" viewBox="0 0 24 24"><path d="M10 11H4V13H10V16L15 12L10 8V11ZM2 17H4V20H20V4H4V7H2V3C2 2.44772 2.44772 2 3 2H21C21.5523 2 22 2.44772 22 3V21C22 21.5523 21.5523 22 21 22H3C2.44772 22 2 21.5523 2 21V17Z"/></symbol>
  <symbol id="logout" viewBox="0 0 24 24"><path d="M5 22C4.44772 22 4 21.5523 4 21V3C4 2.44772 4.44772 2 5 2H19C19.5523 2 20 2.44772 20 3V6H18V4H6V20H18V18H20V21C20 21.5523 19.5523 22 19 22H5ZM18 16V13H11V11H18V8L23 12L18 16Z"/></symbol>
  <symbol id="table" viewBox="0 0 24 24"><path d="M13 10V14H19V10H13ZM11 10H5V14H11V10ZM13 16V20H19V16H13ZM11 16H5V20H11V16ZM13 4H19V8H13V4ZM11 4H5V8H11V4ZM3 2H21C21.5523 2 22 2.44772 22 3V21C22 21.5523 21.5523 22 21 22H3C2.44772 22 2 21.5523 2 21V3C2 2.44772 2.44772 2 3 2Z"/></symbol>
  <symbol id="sort-desc" viewBox="0 0 24 24"><path d="M19 3L23 8H20V20H18V8H15L19 3ZM14 18V20H3V18H14ZM14 11V13H3V11H14ZM12 4V6H3V4H12Z"/></symbol>
  <symbol id="link" viewBox="0 0 24 24"><path d="M18.3643 15.5355L16.95 14.1213L18.3643 12.7071C20.3169 10.7545 20.3169 7.58866 18.3643 5.63604C16.4116 3.68341 13.2458 3.68341 11.2932 5.63604L9.87894 7.05025L8.46472 5.63604L9.87894 4.22182C12.6127 1.48815 17.0448 1.48815 19.7785 4.22182C22.5121 6.9555 22.5121 11.3876 19.7785 14.1213L18.3643 15.5355ZM15.5358 18.364L14.1216 19.7782C11.3879 22.5118 6.95578 22.5118 4.22211 19.7782C1.48843 17.0445 1.48843 12.6123 4.22211 9.87868L5.63632 8.46446L7.05054 9.87868L5.63632 11.2929C3.6837 13.2455 3.6837 16.4113 5.63632 18.364C7.58895 20.3166 10.7548 20.3166 12.7074 18.364L14.1216 16.9497L15.5358 18.364ZM14.8287 7.75736L16.2429 9.17157L9.17161 16.2426L7.7574 14.8284L14.8287 7.75736Z"/></symbol>
  <symbol id="eye" viewBox="0 0 24 24"><path d="M12 3C17.3923 3 21.8784 6.87976 22.8189 12C21.8784 17.1202 17.3923 21 12 21C6.60771 21 2.12159 17.1202 1.18115 12C2.12159 6.87976 6.60771 3 12 3ZM12 19C16.2359 19 19.8603 16.052 20.7777 12C19.8603 7.94803 16.2359 5 12 5C7.76412 5 4.13973 7.94803 3.22235 12C4.13973 16.052 7.76412 19 12 19ZM12 16.5C9.51472 16.5 7.5 14.4853 7.5 12C7.5 9.51472 9.51472 7.5 12 7.5C14.4853 7.5 16.5 9.51472 16.5 12C16.5 14.4853 14.4853 16.5 12 16.5ZM12 14.5C13.3807 14.5 14.5 13.3807 14.5 12C14.5 10.6193 13.3807 9.5 12 9.5C10.6193 9.5 9.5 10.6193 9.5 12C9.5 13.3807 10.6193 14.5 12 14.5Z"/></symbol>
  <symbol id="arrow-right" viewBox="0 0 24 24"><path d="M16.1716 10.9999L10.8076 5.63589L12.2218 4.22168L20 11.9999L12.2218 19.778L10.8076 18.3638L16.1716 12.9999H4V10.9999H16.1716Z"/></symbol>
  <symbol id="refresh" viewBox="0 0 24 24"><path d="M12 4C14.7486 4 17.1749 5.38626 18.6156 7.5H16V9.5H22V3.5H20V5.99936C18.1762 3.57166 15.2724 2 12 2C6.47715 2 2 6.47715 2 12H4C4 7.58172 7.58172 4 12 4ZM20 12C20 16.4183 16.4183 20 12 20C9.25144 20 6.82508 18.6137 5.38443 16.5H8V14.5H2V20.5H4V18.0006C5.82381 20.4283 8.72764 22 12 22C17.5228 22 22 17.5228 22 12H20Z"/></symbol>
  <symbol id="train" viewBox="0 0 24 24"><path d="M17.2 20L19 22H5L6.8 20H17.2ZM12 2C16.42 2 20 3.79 20 6V15C20 16.66 18.66 18 17 18H7C5.34 18 4 16.66 4 15V6C4 3.79 7.58 2 12 2ZM12 12C9.79 12 8 12.9 8 14C8 15.1 9.79 16 12 16C14.21 16 16 15.1 16 14C16 12.9 14.21 12 12 12ZM18 6C18 5.11 15.31 4 12 4C8.69 4 6 5.11 6 6V10H18V6Z"/></symbol>
  <symbol id="map-pin" viewBox="0 0 24 24"><path d="M12 20.8995L16.9497 15.9497C19.6834 13.2161 19.6834 8.78392 16.9497 6.05025C14.2161 3.31658 9.78392 3.31658 7.05025 6.05025C4.31658 8.78392 4.31658 13.2161 7.05025 15.9497L12 20.8995ZM12 23.7279L5.63604 17.364C2.12132 13.8492 2.12132 8.15076 5.63604 4.63604C9.15076 1.12132 14.8492 1.12132 18.364 4.63604C21.8787 8.15076 21.8787 13.8492 18.364 17.364L12 23.7279ZM12 13C13.1046 13 14 12.1046 14 11C14 9.89543 13.1046 9 12 9C10.8954 9 10 9.89543 10 11C10 12.1046 10.8954 13 12 13ZM12 15C9.79086 15 8 13.2091 8 11C8 8.79086 9.79086 7 12 7C14.2091 7 16 8.79086 16 11C16 13.2091 14.2091 15 12 15Z"/></symbol>
  <symbol id="check" viewBox="0 0 24 24"><path d="M10.0007 15.1709L19.1931 5.97852L20.6073 7.39273L10.0007 17.9993L3.63672 11.6354L5.05093 10.2212L10.0007 15.1709Z"/></symbol>
  <symbol id="chevron-down" viewBox="0 0 24 24"><path d="M12 13.1714L16.9497 8.22168L18.364 9.63589L12 15.9999L5.63605 9.63589L7.05026 8.22168L12 13.1714Z"/></symbol>
  <symbol id="chevron-up" viewBox="0 0 24 24"><path d="M12 10.8284L7.05026 15.7782L5.63605 14.364L12 7.99995L18.364 14.364L16.9497 15.7782L12 10.8284Z"/></symbol>
  <symbol id="plus" viewBox="0 0 24 24"><path d="M11 11V5H13V11H19V13H13V19H11V13H5V11H11Z"/></symbol>
  <symbol id="minus" viewBox="0 0 24 24"><path d="M5 11V13H19V11H5Z"/></symbol>
</svg>
