<svg xmlns="http://www.w3.org/2000/svg" style="display:none;">
  <symbol id="search" viewBox="0 0 24 24"><path d="M18.031 16.6168L22.3137 20.8995L20.8995 22.3137L16.6168 18.031C15.0769 19.263 13.124 20 11 20C6.032 20 2 15.968 2 11C2 6.032 6.032 2 11 2C15.968 2 20 6.032 20 11C20 13.124 19.263 15.0769 18.031 16.6168ZM16.0247 15.8748C17.2475 14.6146 18 12.8956 18 11C18 7.1325 14.8675 4 11 4C7.1325 4 4 7.1325 4 11C4 14.8675 7.1325 18 11 18C12.8956 18 14.6146 17.2475 15.8748 16.0247L16.0247 15.8748Z"/></symbol>
  <symbol id="filter" viewBox="0 0 24 24"><path d="M21 4V6H20L15 13.5V22H9V13.5L4 6H3V4H21ZM6.4037 6L11 12.8944V20H13V12.8944L17.5963 6H6.4037Z"/></symbol>
  <symbol id="close" viewBox="0 0 24 24"><path d="M12.0007 10.5865L16.9504 5.63672L18.3646 7.05093L13.4149 12.0007L18.3646 16.9504L16.9504 18.3646L12.0007 13.4149L7.05093 18.3646L5.63672 16.9504L10.5865 12.0007L5.63672 7.05093L7.05093 5.63672L12.0007 10.5865Z"/></symbol>
  <symbol id="mail" viewBox="0 0 24 24"><path d="M3 3H21C21.5523 3 22 3.44772 22 4V20C22 20.5523 21.5523 21 21 21H3C2.44772 21 2 20.5523 2 20V4C2 3.44772 2.44772 3 3 3ZM20 7.23792L12.0718 14.338L4 7.21594V19H20V7.23792ZM4.51146 5L12.0619 11.662L19.501 5H4.51146Z"/></symbol>
  <symbol id="mail-fill" viewBox="0 0 24 24"><path d="M3 3H21C21.5523 3 22 3.44772 22 4V20C22 20.5523 21.5523 21 21 21H3C2.44772 21 2 20.5523 2 20V4C2 3.44772 2.44772 3 3 3ZM12.0606 11.6829L5.64722 6.2377L4.35278 7.7623L12.0731 14.3171L19.6544 7.75616L18.3456 6.24384L12.0606 11.6829Z"/></symbol>
  <symbol id="phone" viewBox="0 0 24 24"><path d="M9.36556 10.6821C10.302 12.3288 11.6712 13.698 13.3179 14.6344L14.2024 13.3961C14.4965 12.9845 15.0516 12.8573 15.4956 13.0998C16.9024 13.8683 18.4571 14.3353 20.0789 14.4637C20.5906 14.5049 21 14.9389 21 15.4526V19.9864C21 20.5077 20.5761 20.9456 20.0549 20.9948C19.5765 21.0389 19.0924 21.0608 18.6033 21.0608C9.88543 21.0608 2.93921 14.1146 2.93921 5.39669C2.93921 4.90765 2.96113 4.42351 3.00526 3.94507C3.05445 3.42389 3.49231 3 4.01356 3H8.54737C9.06109 3 9.49505 3.40938 9.53625 3.92104C9.66471 5.54289 10.1317 7.09757 10.9002 8.50445C11.1427 8.94844 11.0155 9.50349 10.6039 9.79761L9.36556 10.6821Z"/></symbol>
  <symbol id="user" viewBox="0 0 24 24"><path d="M4 22C4 17.5817 7.58172 14 12 14C16.4183 14 20 17.5817 20 22H18C18 18.6863 15.3137 16 12 16C8.68629 16 6 18.6863 6 22H4ZM12 13C8.685 13 6 10.315 6 7C6 3.685 8.685 1 12 1C15.315 1 18 3.685 18 7C18 10.315 15.315 13 12 13ZM12 11C14.21 11 16 9.21 16 7C16 4.79 14.21 3 12 3C9.79 3 8 4.79 8 7C8 9.21 9.79 11 12 11Z"/></symbol>
  <symbol id="pencil" viewBox="0 0 24 24"><path d="M15.7279 9.57627L14.3137 8.16206L5 17.4758V18.89H6.41421L15.7279 9.57627ZM17.1421 8.16206L18.5563 6.74785L17.1421 5.33363L15.7279 6.74785L17.1421 8.16206ZM7.24264 20.89H3V16.6473L16.435 3.21231C16.8256 2.82179 17.4587 2.82179 17.8492 3.21231L20.6777 6.04074C21.0682 6.43126 21.0682 7.06443 20.6777 7.45495L7.24264 20.89Z"/></symbol>
  <symbol id="external-link" viewBox="0 0 24 24"><path d="M10 6V8H5V19H16V14H18V20C18 20.5523 17.5523 21 17 21H4C3.44772 21 3 20.5523 3 20V7C3 6.44772 3.44772 6 4 6H10ZM21 3V11H19V6.413L11.2071 14.2071L9.79289 12.7929L17.585 5H13V3H21Z"/></symbol>
  <symbol id="checkbox-circle-fill" viewBox="0 0 24 24"><path d="M12 22C6.47715 22 2 17.5228 2 12C2 6.47715 6.47715 2 12 2C17.5228 2 22 6.47715 22 12C22 17.5228 17.5228 22 12 22ZM11.0026 16L18.0737 8.92893L16.6595 7.51472L11.0026 13.1716L8.17421 10.3431L6.75999 11.7574L11.0026 16Z"/></symbol>
  <symbol id="error-warning-fill" viewBox="0 0 24 24"><path d="M12 22C6.47715 22 2 17.5228 2 12C2 6.47715 6.47715 2 12 2C17.5228 2 22 6.47715 22 12C22 17.5228 17.5228 22 12 22ZM11 15V17H13V15H11ZM11 7V13H13V7H11Z"/></symbol>
  <symbol id="information" viewBox="0 0 24 24"><path d="M12 22C6.47715 22 2 17.5228 2 12C2 6.47715 6.47715 2 12 2C17.5228 2 22 6.47715 22 12C22 17.5228 17.5228 22 12 22ZM12 20C16.4183 20 20 16.4183 20 12C20 7.58172 16.4183 4 12 4C7.58172 4 4 7.58172 4 12C4 16.4183 7.58172 20 12 20ZM11 7H13V9H11V7ZM11 11H13V17H11V11Z"/></symbol>
  <symbol id="save" viewBox="0 0 24 24"><path d="M7 19V13H17V19H19V7.82843L16.1716 5H5V19H7ZM4 3H17L21 7V20C21 20.5523 20.5523 21 20 21H4C3.44772 21 3 20.5523 3 20V4C3 3.44772 3.44772 3 4 3ZM9 15V19H15V15H9Z"/></symbol>
  <symbol id="file-upload" viewBox="0 0 24 24"><path d="M15 4H5V20H19V8H15V4ZM3 2.9918C3 2.44405 3.44749 2 3.9985 2H16L20.9997 7L21 20.9925C21 21.5489 20.5551 22 20.0066 22H3.9934C3.44476 22 3 21.5447 3 21.0082V2.9918ZM13 12V16H11V12H8L12 8L16 12H13Z"/></symbol>
  <symbol id="chat" viewBox="0 0 24 24"><path d="M5.76282 17H20V5H4V18.3851L5.76282 17ZM6.45455 19L2 22.5V4C2 3.44772 2.44772 3 3 3H21C21.5523 3 22 3.44772 22 4V18C22 18.5523 21.5523 19 21 19H6.45455Z"/></symbol>
  <symbol id="building" viewBox="0 0 24 24"><path d="M21 20H23V22H1V20H3V3C3 2.44772 3.44772 2 4 2H20C20.5523 2 21 2.44772 21 3V20ZM19 20V4H5V20H19ZM8 11H11V13H8V11ZM8 7H11V9H8V7ZM8 15H11V17H8V15ZM13 15H16V17H13V15ZM13 11H16V13H13V11ZM13 7H16V9H13V7Z"/></symbol>
  <symbol id="ticket" viewBox="0 0 24 24"><path d="M21.0049 2.99979C21.5572 2.99979 22.0049 3.4475 22.0049 3.99979V9.49979C20.6242 9.49979 19.5049 10.6191 19.5049 11.9998C19.5049 13.3805 20.6242 14.4998 22.0049 14.4998V19.9998C22.0049 20.5521 21.5572 20.9998 21.0049 20.9998H3.00488C2.4526 20.9998 2.00488 20.5521 2.00488 19.9998V14.4998C3.38559 14.4998 4.50488 13.3805 4.50488 11.9998C4.50488 10.6191 3.38559 9.49979 2.00488 9.49979V3.99979C2.00488 3.4475 2.4526 2.99979 3.00488 2.99979H21.0049ZM20.0049 4.99979H4.00488V7.96779L4.16077 8.04886C5.49935 8.78084 6.42516 10.1733 6.49998 11.7832L6.50488 11.9998C6.50488 13.704 5.55755 15.1869 4.16077 15.9507L4.00488 16.0318V18.9998H20.0049V16.0318C18.5662 15.3151 17.5605 13.8476 17.5055 12.1466L17.5049 11.9998C17.5049 10.2956 18.4522 8.81269 19.849 8.04886L20.0049 7.96779V4.99979Z"/></symbol>
  <symbol id="footprint" viewBox="0 0 24 24"><path d="M4 17.9974C4.49861 18 5.00278 18.0247 5.5 18.0738V21.0003H10.5V18.3359C11.3312 18.1156 12.1682 17.8301 13 17.4796V21.0003H18V16.4698C20.0133 14.5283 21.5 11.9008 21.5 9.00028C21.5 4.02972 17.4706 0 12.5 0C7.52944 0 3.5 4.02972 3.5 9.00028C3.5 12.2862 3.5 15.4696 4 17.9974ZM7.5 8.49972C6.39543 8.49972 5.5 7.60429 5.5 6.49972C5.5 5.39515 6.39543 4.49972 7.5 4.49972C8.60457 4.49972 9.5 5.39515 9.5 6.49972C9.5 7.60429 8.60457 8.49972 7.5 8.49972ZM17.5 8.49972C16.3954 8.49972 15.5 7.60429 15.5 6.49972C15.5 5.39515 16.3954 4.49972 17.5 4.49972C18.6046 4.49972 19.5 5.39515 19.5 6.49972C19.5 7.60429 18.6046 8.49972 17.5 8.49972Z"/></symbol>
  <symbol id="login" viewBox="0 0 24 24"><path d="M10 11H4V13H10V16L15 12L10 8V11ZM2 17H4V20H20V4H4V7H2V3C2 2.44772 2.44772 2 3 2H21C21.5523 2 22 2.44772 22 3V21C22 21.5523 21.5523 22 21 22H3C2.44772 22 2 21.5523 2 21V17Z"/></symbol>
  <symbol id="logout" viewBox="0 0 24 24"><path d="M5 22C4.44772 22 4 21.5523 4 21V3C4 2.44772 4.44772 2 5 2H19C19.5523 2 20 2.44772 20 3V6H18V4H6V20H18V18H20V21C20 21.5523 19.5523 22 19 22H5ZM18 16V13H11V11H18V8L23 12L18 16Z"/></symbol>
  <symbol id="table" viewBox="0 0 24 24"><path d="M13 10V14H19V10H13ZM11 10H5V14H11V10ZM13 16V20H19V16H13ZM11 16H5V20H11V16ZM13 4H19V8H13V4ZM11 4H5V8H11V4ZM3 2H21C21.5523 2 22 2.44772 22 3V21C22 21.5523 21.5523 22 21 22H3C2.44772 22 2 21.5523 2 21V3C2 2.44772 2.44772 2 3 2Z"/></symbol>
  <symbol id="sort-desc" viewBox="0 0 24 24"><path d="M19 3L23 8H20V20H18V8H15L19 3ZM14 18V20H3V18H14ZM14 11V13H3V11H14ZM12 4V6H3V4H12Z"/></symbol>
  <symbol id="link" viewBox="0 0 24 24"><path d="M18.3643 15.5355L16.95 14.1213L18.3643 12.7071C20.3169 10.7545 20.3169 7.58866 18.3643 5.63604C16.4116 3.68341 13.2458 3.68341 11.2932 5.63604L9.87894 7.05025L8.46472 5.63604L9.87894 4.22182C12.6127 1.48815 17.0448 1.48815 19.7785 4.22182C22.5121 6.9555 22.5121 11.3876 19.7785 14.1213L18.3643 15.5355ZM15.5358 18.364L14.1216 19.7782C11.3879 22.5118 6.95578 22.5118 4.22211 19.7782C1.48843 17.0445 1.48843 12.6123 4.22211 9.87868L5.63632 8.46446L7.05054 9.87868L5.63632 11.2929C3.6837 13.2455 3.6837 16.4113 5.63632 18.364C7.58895 20.3166 10.7548 20.3166 12.7074 18.364L14.1216 16.9497L15.5358 18.364ZM14.8287 7.75736L16.2429 9.17157L9.17161 16.2426L7.7574 14.8284L14.8287 7.75736Z"/></symbol>
  <symbol id="eye" viewBox="0 0 24 24"><path d="M12 3C17.3923 3 21.8784 6.87976 22.8189 12C21.8784 17.1202 17.3923 21 12 21C6.60771 21 2.12159 17.1202 1.18115 12C2.12159 6.87976 6.60771 3 12 3ZM12 19C16.2359 19 19.8603 16.052 20.7777 12C19.8603 7.94803 16.2359 5 12 5C7.76412 5 4.13973 7.94803 3.22235 12C4.13973 16.052 7.76412 19 12 19ZM12 16.5C9.51472 16.5 7.5 14.4853 7.5 12C7.5 9.51472 9.51472 7.5 12 7.5C14.4853 7.5 16.5 9.51472 16.5 12C16.5 14.4853 14.4853 16.5 12 16.5ZM12 14.5C13.3807 14.5 14.5 13.3807 14.5 12C14.5 10.6193 13.3807 9.5 12 9.5C10.6193 9.5 9.5 10.6193 9.5 12C9.5 13.3807 10.6193 14.5 12 14.5Z"/></symbol>
  <symbol id="arrow-right" viewBox="0 0 24 24"><path d="M16.1716 10.9999L10.8076 5.63589L12.2218 4.22168L20 11.9999L12.2218 19.778L10.8076 18.3638L16.1716 12.9999H4V10.9999H16.1716Z"/></symbol>
  <symbol id="refresh" viewBox="0 0 24 24"><path d="M12 4C14.7486 4 17.1749 5.38626 18.6156 7.5H16V9.5H22V3.5H20V5.99936C18.1762 3.57166 15.2724 2 12 2C6.47715 2 2 6.47715 2 12H4C4 7.58172 7.58172 4 12 4ZM20 12C20 16.4183 16.4183 20 12 20C9.25144 20 6.82508 18.6137 5.38443 16.5H8V14.5H2V20.5H4V18.0006C5.82381 20.4283 8.72764 22 12 22C17.5228 22 22 17.5228 22 12H20Z"/></symbol>
  <symbol id="train" viewBox="0 0 24 24"><path d="M17.2 20L19 22H5L6.8 20H17.2ZM12 2C16.42 2 20 3.79 20 6V15C20 16.66 18.66 18 17 18H7C5.34 18 4 16.66 4 15V6C4 3.79 7.58 2 12 2ZM12 12C9.79 12 8 12.9 8 14C8 15.1 9.79 16 12 16C14.21 16 16 15.1 16 14C16 12.9 14.21 12 12 12ZM18 6C18 5.11 15.31 4 12 4C8.69 4 6 5.11 6 6V10H18V6Z"/></symbol>
  <symbol id="map-pin" viewBox="0 0 24 24"><path d="M12 20.8995L16.9497 15.9497C19.6834 13.2161 19.6834 8.78392 16.9497 6.05025C14.2161 3.31658 9.78392 3.31658 7.05025 6.05025C4.31658 8.78392 4.31658 13.2161 7.05025 15.9497L12 20.8995ZM12 23.7279L5.63604 17.364C2.12132 13.8492 2.12132 8.15076 5.63604 4.63604C9.15076 1.12132 14.8492 1.12132 18.364 4.63604C21.8787 8.15076 21.8787 13.8492 18.364 17.364L12 23.7279ZM12 13C13.1046 13 14 12.1046 14 11C14 9.89543 13.1046 9 12 9C10.8954 9 10 9.89543 10 11C10 12.1046 10.8954 13 12 13ZM12 15C9.79086 15 8 13.2091 8 11C8 8.79086 9.79086 7 12 7C14.2091 7 16 8.79086 16 11C16 13.2091 14.2091 15 12 15Z"/></symbol>
  <symbol id="check" viewBox="0 0 24 24"><path d="M10.0007 15.1709L19.1931 5.97852L20.6073 7.39273L10.0007 17.9993L3.63672 11.6354L5.05093 10.2212L10.0007 15.1709Z"/></symbol>
  <symbol id="chevron-down" viewBox="0 0 24 24"><path d="M12 13.1714L16.9497 8.22168L18.364 9.63589L12 15.9999L5.63605 9.63589L7.05026 8.22168L12 13.1714Z"/></symbol>
  <symbol id="chevron-up" viewBox="0 0 24 24"><path d="M12 10.8284L7.05026 15.7782L5.63605 14.364L12 7.99995L18.364 14.364L16.9497 15.7782L12 10.8284Z"/></symbol>
  <symbol id="plus" viewBox="0 0 24 24"><path d="M11 11V5H13V11H19V13H13V19H11V13H5V11H11Z"/></symbol>
  <symbol id="minus" viewBox="0 0 24 24"><path d="M5 11V13H19V11H5Z"/></symbol>
  <symbol id="arrow-left" viewBox="0 0 24 24"><path d="M7.82843 10.9999H20V12.9999H7.82843L13.1924 18.3638L11.7782 19.778L4 11.9999L11.7782 4.22168L13.1924 5.63589L7.82843 10.9999Z"/></symbol>
  <symbol id="riding" viewBox="0 0 24 24"><path d="M5.5 21C3.01472 21 1 18.9853 1 16.5C1 14.0147 3.01472 12 5.5 12C7.98528 12 10 14.0147 10 16.5C10 18.9853 7.98528 21 5.5 21ZM5.5 19C6.88071 19 8 17.8807 8 16.5C8 15.1193 6.88071 14 5.5 14C4.11929 14 3 15.1193 3 16.5C3 17.8807 4.11929 19 5.5 19ZM18.5 21C16.0147 21 14 18.9853 14 16.5C14 14.0147 16.0147 12 18.5 12C20.9853 12 23 14.0147 23 16.5C23 18.9853 20.9853 21 18.5 21ZM18.5 19C19.8807 19 21 17.8807 21 16.5C21 15.1193 19.8807 14 18.5 14C17.1193 14 16 15.1193 16 16.5C16 17.8807 17.1193 19 18.5 19ZM11.023 10.3054L13 12V18H11V13L8.28117 10.7343C8.18221 10.6661 8.08802 10.588 8 10.5C7.21895 9.71895 7.21895 8.45262 8 7.67157L10.8284 4.84315C11.6095 4.0621 12.8758 4.0621 13.6569 4.84315L15.0711 6.25736C16.1746 7.36086 17.5548 8.01891 18.9884 8.23151L18.978 10.2474C17.0335 10.0218 15.1485 9.16323 13.6569 7.67157L11.023 10.3054ZM16 5C14.8954 5 14 4.10457 14 3C14 1.89543 14.8954 1 16 1C17.1046 1 18 1.89543 18 3C18 4.10457 17.1046 5 16 5Z"/></symbol>
  <symbol id="sun-foggy" viewBox="0 0 24 24"><path d="M6.34141 14C6.12031 13.3744 6 12.7013 6 12C6 8.68629 8.68629 6 12 6C15.3137 6 18 8.68629 18 12C18 15.3137 15.3137 18 12 18V14H6.34141ZM6 20H15V22H6V20ZM1 11H4V13H1V11ZM2 16H10V18H2V16ZM11 1H13V4H11V1ZM3.51472 4.92893L4.92893 3.51472L7.05025 5.63604L5.63604 7.05025L3.51472 4.92893ZM16.9497 18.364L18.364 16.9497L20.4853 19.0711L19.0711 20.4853L16.9497 18.364ZM19.0711 3.51472L20.4853 4.92893L18.364 7.05025L16.9497 5.63604L19.0711 3.51472ZM23 11V13H20V11H23Z"/></symbol>
  <symbol id="sun-cloudy" viewBox="0 0 24 24"><path d="M9.98392 5.05991C11.1323 3.22236 13.1734 2 15.5 2C19.0899 2 22 4.91015 22 8.5C22 9.58031 21.7365 10.5991 21.2701 11.4955C22.3351 12.4985 23 13.9216 23 15.5C23 18.5376 20.5376 21 17.5 21H9C4.58172 21 1 17.4183 1 13C1 8.58172 4.58172 5 9 5C9.33312 5 9.66149 5.02036 9.98392 5.05991ZM12.0554 5.60419C14.0675 6.43637 15.6662 8.06578 16.4576 10.0986C16.7951 10.0339 17.1436 10 17.5 10C18.2351 10 18.9366 10.1442 19.5776 10.4059C19.8486 9.82719 20 9.18128 20 8.5C20 6.01472 17.9853 4 15.5 4C14.1177 4 12.8809 4.6233 12.0554 5.60419Z"/></symbol>
</svg>
